<?xml version="1.0" encoding="utf-8" standalone="no"?>
<!DOCTYPE svg PUBLIC "-//W3C//DTD SVG 1.1//EN"
  "http://www.w3.org/Graphics/SVG/1.1/DTD/svg11.dtd">
<svg xmlns:xlink="http://www.w3.org/1999/xlink" width="712.957031pt" height="566.91375pt" viewBox="0 0 712.957031 566.91375" xmlns="http://www.w3.org/2000/svg" version="1.1">
 <metadata>
  <rdf:RDF xmlns:dc="http://purl.org/dc/elements/1.1/" xmlns:cc="http://creativecommons.org/ns#" xmlns:rdf="http://www.w3.org/1999/02/22-rdf-syntax-ns#">
   <cc:Work>
    <dc:type rdf:resource="http://purl.org/dc/dcmitype/StillImage"/>
    <dc:date>2026-03-25T16:13:28.945267</dc:date>
    <dc:format>image/svg+xml</dc:format>
    <dc:creator>
     <cc:Agent>
      <dc:title>Matplotlib v3.10.8, https://matplotlib.org/</dc:title>
     </cc:Agent>
    </dc:creator>
   </cc:Work>
  </rdf:RDF>
 </metadata>
 <defs>
  <style type="text/css">*{stroke-linejoin: round; stroke-linecap: butt}</style>
 </defs>
 <g id="figure_1">
  <g id="patch_1">
   <path d="M -0 566.91375 
L 712.957031 566.91375 
L 712.957031 0 
L -0 0 
z
" style="fill: #ffffff"/>
  </g>
  <g id="axes_1">
   <g id="patch_2">
    <path d="M 30.567031 531.179531 
L 705.757031 531.179531 
L 705.757031 24.119531 
L 30.567031 24.119531 
z
" style="fill: #ffffff"/>
   </g>
   <g id="matplotlib.axis_1">
    <g id="xtick_1">
     <g id="line2d_1">
      <path d="M 103.101415 531.179531 
L 103.101415 24.119531 
" clip-path="url(#p88cb8e1908)" style="fill: none; stroke: #cccccc; stroke-opacity: 0.3; stroke-width: 0.8; stroke-linecap: round"/>
     </g>
     <g id="line2d_2"/>
     <g id="text_1">
      <!-- −1.0 -->
      <g style="fill: #262626" transform="translate(93.231103 541.837344) scale(0.1 -0.1)">
       <defs>
        <path id="ArialMT-2212" d="M 3381 1997 
L 356 1997 
L 356 2522 
L 3381 2522 
L 3381 1997 
z
" transform="scale(0.015625)"/>
        <path id="ArialMT-31" d="M 2384 0 
L 1822 0 
L 1822 3584 
Q 1619 3391 1289 3197 
Q 959 3003 697 2906 
L 697 3450 
Q 1169 3672 1522 3987 
Q 1875 4303 2022 4600 
L 2384 4600 
L 2384 0 
z
" transform="scale(0.015625)"/>
        <path id="ArialMT-2e" d="M 581 0 
L 581 641 
L 1222 641 
L 1222 0 
L 581 0 
z
" transform="scale(0.015625)"/>
        <path id="ArialMT-30" d="M 266 2259 
Q 266 3072 433 3567 
Q 600 4063 929 4331 
Q 1259 4600 1759 4600 
Q 2128 4600 2406 4451 
Q 2684 4303 2865 4023 
Q 3047 3744 3150 3342 
Q 3253 2941 3253 2259 
Q 3253 1453 3087 958 
Q 2922 463 2592 192 
Q 2263 -78 1759 -78 
Q 1097 -78 719 397 
Q 266 969 266 2259 
z
M 844 2259 
Q 844 1131 1108 757 
Q 1372 384 1759 384 
Q 2147 384 2411 759 
Q 2675 1134 2675 2259 
Q 2675 3391 2411 3762 
Q 2147 4134 1753 4134 
Q 1366 4134 1134 3806 
Q 844 3388 844 2259 
z
" transform="scale(0.015625)"/>
       </defs>
       <use xlink:href="#ArialMT-2212"/>
       <use xlink:href="#ArialMT-31" transform="translate(58.398438 0)"/>
       <use xlink:href="#ArialMT-2e" transform="translate(114.013672 0)"/>
       <use xlink:href="#ArialMT-30" transform="translate(141.796875 0)"/>
      </g>
     </g>
    </g>
    <g id="xtick_2">
     <g id="line2d_3">
      <path d="M 237.472245 531.179531 
L 237.472245 24.119531 
" clip-path="url(#p88cb8e1908)" style="fill: none; stroke: #cccccc; stroke-opacity: 0.3; stroke-width: 0.8; stroke-linecap: round"/>
     </g>
     <g id="line2d_4"/>
     <g id="text_2">
      <!-- −0.5 -->
      <g style="fill: #262626" transform="translate(227.601933 541.837344) scale(0.1 -0.1)">
       <defs>
        <path id="ArialMT-35" d="M 266 1200 
L 856 1250 
Q 922 819 1161 601 
Q 1400 384 1738 384 
Q 2144 384 2425 690 
Q 2706 997 2706 1503 
Q 2706 1984 2436 2262 
Q 2166 2541 1728 2541 
Q 1456 2541 1237 2417 
Q 1019 2294 894 2097 
L 366 2166 
L 809 4519 
L 3088 4519 
L 3088 3981 
L 1259 3981 
L 1013 2750 
Q 1425 3038 1878 3038 
Q 2478 3038 2890 2622 
Q 3303 2206 3303 1553 
Q 3303 931 2941 478 
Q 2500 -78 1738 -78 
Q 1113 -78 717 272 
Q 322 622 266 1200 
z
" transform="scale(0.015625)"/>
       </defs>
       <use xlink:href="#ArialMT-2212"/>
       <use xlink:href="#ArialMT-30" transform="translate(58.398438 0)"/>
       <use xlink:href="#ArialMT-2e" transform="translate(114.013672 0)"/>
       <use xlink:href="#ArialMT-35" transform="translate(141.796875 0)"/>
      </g>
     </g>
    </g>
    <g id="xtick_3">
     <g id="line2d_5">
      <path d="M 371.843075 531.179531 
L 371.843075 24.119531 
" clip-path="url(#p88cb8e1908)" style="fill: none; stroke: #cccccc; stroke-opacity: 0.3; stroke-width: 0.8; stroke-linecap: round"/>
     </g>
     <g id="line2d_6"/>
     <g id="text_3">
      <!-- 0.0 -->
      <g style="fill: #262626" transform="translate(364.893075 541.837344) scale(0.1 -0.1)">
       <use xlink:href="#ArialMT-30"/>
       <use xlink:href="#ArialMT-2e" transform="translate(55.615234 0)"/>
       <use xlink:href="#ArialMT-30" transform="translate(83.398438 0)"/>
      </g>
     </g>
    </g>
    <g id="xtick_4">
     <g id="line2d_7">
      <path d="M 506.213904 531.179531 
L 506.213904 24.119531 
" clip-path="url(#p88cb8e1908)" style="fill: none; stroke: #cccccc; stroke-opacity: 0.3; stroke-width: 0.8; stroke-linecap: round"/>
     </g>
     <g id="line2d_8"/>
     <g id="text_4">
      <!-- 0.5 -->
      <g style="fill: #262626" transform="translate(499.263904 541.837344) scale(0.1 -0.1)">
       <use xlink:href="#ArialMT-30"/>
       <use xlink:href="#ArialMT-2e" transform="translate(55.615234 0)"/>
       <use xlink:href="#ArialMT-35" transform="translate(83.398438 0)"/>
      </g>
     </g>
    </g>
    <g id="xtick_5">
     <g id="line2d_9">
      <path d="M 640.584734 531.179531 
L 640.584734 24.119531 
" clip-path="url(#p88cb8e1908)" style="fill: none; stroke: #cccccc; stroke-opacity: 0.3; stroke-width: 0.8; stroke-linecap: round"/>
     </g>
     <g id="line2d_10"/>
     <g id="text_5">
      <!-- 1.0 -->
      <g style="fill: #262626" transform="translate(633.634734 541.837344) scale(0.1 -0.1)">
       <use xlink:href="#ArialMT-31"/>
       <use xlink:href="#ArialMT-2e" transform="translate(55.615234 0)"/>
       <use xlink:href="#ArialMT-30" transform="translate(83.398438 0)"/>
      </g>
     </g>
    </g>
    <g id="text_6">
     <!-- Coefficient Value -->
     <g style="fill: #262626" transform="translate(319.617188 557.13) scale(0.13 -0.13)">
      <defs>
       <path id="ArialMT-43" d="M 3763 1606 
L 4369 1453 
Q 4178 706 3683 314 
Q 3188 -78 2472 -78 
Q 1731 -78 1267 223 
Q 803 525 561 1097 
Q 319 1669 319 2325 
Q 319 3041 592 3573 
Q 866 4106 1370 4382 
Q 1875 4659 2481 4659 
Q 3169 4659 3637 4309 
Q 4106 3959 4291 3325 
L 3694 3184 
Q 3534 3684 3231 3912 
Q 2928 4141 2469 4141 
Q 1941 4141 1586 3887 
Q 1231 3634 1087 3207 
Q 944 2781 944 2328 
Q 944 1744 1114 1308 
Q 1284 872 1643 656 
Q 2003 441 2422 441 
Q 2931 441 3284 734 
Q 3638 1028 3763 1606 
z
" transform="scale(0.015625)"/>
       <path id="ArialMT-6f" d="M 213 1659 
Q 213 2581 725 3025 
Q 1153 3394 1769 3394 
Q 2453 3394 2887 2945 
Q 3322 2497 3322 1706 
Q 3322 1066 3130 698 
Q 2938 331 2570 128 
Q 2203 -75 1769 -75 
Q 1072 -75 642 372 
Q 213 819 213 1659 
z
M 791 1659 
Q 791 1022 1069 705 
Q 1347 388 1769 388 
Q 2188 388 2466 706 
Q 2744 1025 2744 1678 
Q 2744 2294 2464 2611 
Q 2184 2928 1769 2928 
Q 1347 2928 1069 2612 
Q 791 2297 791 1659 
z
" transform="scale(0.015625)"/>
       <path id="ArialMT-65" d="M 2694 1069 
L 3275 997 
Q 3138 488 2766 206 
Q 2394 -75 1816 -75 
Q 1088 -75 661 373 
Q 234 822 234 1631 
Q 234 2469 665 2931 
Q 1097 3394 1784 3394 
Q 2450 3394 2872 2941 
Q 3294 2488 3294 1666 
Q 3294 1616 3291 1516 
L 816 1516 
Q 847 969 1125 678 
Q 1403 388 1819 388 
Q 2128 388 2347 550 
Q 2566 713 2694 1069 
z
M 847 1978 
L 2700 1978 
Q 2663 2397 2488 2606 
Q 2219 2931 1791 2931 
Q 1403 2931 1139 2672 
Q 875 2413 847 1978 
z
" transform="scale(0.015625)"/>
       <path id="ArialMT-66" d="M 556 0 
L 556 2881 
L 59 2881 
L 59 3319 
L 556 3319 
L 556 3672 
Q 556 4006 616 4169 
Q 697 4388 901 4523 
Q 1106 4659 1475 4659 
Q 1713 4659 2000 4603 
L 1916 4113 
Q 1741 4144 1584 4144 
Q 1328 4144 1222 4034 
Q 1116 3925 1116 3625 
L 1116 3319 
L 1763 3319 
L 1763 2881 
L 1116 2881 
L 1116 0 
L 556 0 
z
" transform="scale(0.015625)"/>
       <path id="ArialMT-69" d="M 425 3934 
L 425 4581 
L 988 4581 
L 988 3934 
L 425 3934 
z
M 425 0 
L 425 3319 
L 988 3319 
L 988 0 
L 425 0 
z
" transform="scale(0.015625)"/>
       <path id="ArialMT-63" d="M 2588 1216 
L 3141 1144 
Q 3050 572 2676 248 
Q 2303 -75 1759 -75 
Q 1078 -75 664 370 
Q 250 816 250 1647 
Q 250 2184 428 2587 
Q 606 2991 970 3192 
Q 1334 3394 1763 3394 
Q 2303 3394 2647 3120 
Q 2991 2847 3088 2344 
L 2541 2259 
Q 2463 2594 2264 2762 
Q 2066 2931 1784 2931 
Q 1359 2931 1093 2626 
Q 828 2322 828 1663 
Q 828 994 1084 691 
Q 1341 388 1753 388 
Q 2084 388 2306 591 
Q 2528 794 2588 1216 
z
" transform="scale(0.015625)"/>
       <path id="ArialMT-6e" d="M 422 0 
L 422 3319 
L 928 3319 
L 928 2847 
Q 1294 3394 1984 3394 
Q 2284 3394 2536 3286 
Q 2788 3178 2913 3003 
Q 3038 2828 3088 2588 
Q 3119 2431 3119 2041 
L 3119 0 
L 2556 0 
L 2556 2019 
Q 2556 2363 2490 2533 
Q 2425 2703 2258 2804 
Q 2091 2906 1866 2906 
Q 1506 2906 1245 2678 
Q 984 2450 984 1813 
L 984 0 
L 422 0 
z
" transform="scale(0.015625)"/>
       <path id="ArialMT-74" d="M 1650 503 
L 1731 6 
Q 1494 -44 1306 -44 
Q 1000 -44 831 53 
Q 663 150 594 308 
Q 525 466 525 972 
L 525 2881 
L 113 2881 
L 113 3319 
L 525 3319 
L 525 4141 
L 1084 4478 
L 1084 3319 
L 1650 3319 
L 1650 2881 
L 1084 2881 
L 1084 941 
Q 1084 700 1114 631 
Q 1144 563 1211 522 
Q 1278 481 1403 481 
Q 1497 481 1650 503 
z
" transform="scale(0.015625)"/>
       <path id="ArialMT-20" transform="scale(0.015625)"/>
       <path id="ArialMT-56" d="M 1803 0 
L 28 4581 
L 684 4581 
L 1875 1253 
Q 2019 853 2116 503 
Q 2222 878 2363 1253 
L 3600 4581 
L 4219 4581 
L 2425 0 
L 1803 0 
z
" transform="scale(0.015625)"/>
       <path id="ArialMT-61" d="M 2588 409 
Q 2275 144 1986 34 
Q 1697 -75 1366 -75 
Q 819 -75 525 192 
Q 231 459 231 875 
Q 231 1119 342 1320 
Q 453 1522 633 1644 
Q 813 1766 1038 1828 
Q 1203 1872 1538 1913 
Q 2219 1994 2541 2106 
Q 2544 2222 2544 2253 
Q 2544 2597 2384 2738 
Q 2169 2928 1744 2928 
Q 1347 2928 1158 2789 
Q 969 2650 878 2297 
L 328 2372 
Q 403 2725 575 2942 
Q 747 3159 1072 3276 
Q 1397 3394 1825 3394 
Q 2250 3394 2515 3294 
Q 2781 3194 2906 3042 
Q 3031 2891 3081 2659 
Q 3109 2516 3109 2141 
L 3109 1391 
Q 3109 606 3145 398 
Q 3181 191 3288 0 
L 2700 0 
Q 2613 175 2588 409 
z
M 2541 1666 
Q 2234 1541 1622 1453 
Q 1275 1403 1131 1340 
Q 988 1278 909 1158 
Q 831 1038 831 891 
Q 831 666 1001 516 
Q 1172 366 1500 366 
Q 1825 366 2078 508 
Q 2331 650 2450 897 
Q 2541 1088 2541 1459 
L 2541 1666 
z
" transform="scale(0.015625)"/>
       <path id="ArialMT-6c" d="M 409 0 
L 409 4581 
L 972 4581 
L 972 0 
L 409 0 
z
" transform="scale(0.015625)"/>
       <path id="ArialMT-75" d="M 2597 0 
L 2597 488 
Q 2209 -75 1544 -75 
Q 1250 -75 995 37 
Q 741 150 617 320 
Q 494 491 444 738 
Q 409 903 409 1263 
L 409 3319 
L 972 3319 
L 972 1478 
Q 972 1038 1006 884 
Q 1059 663 1231 536 
Q 1403 409 1656 409 
Q 1909 409 2131 539 
Q 2353 669 2445 892 
Q 2538 1116 2538 1541 
L 2538 3319 
L 3100 3319 
L 3100 0 
L 2597 0 
z
" transform="scale(0.015625)"/>
      </defs>
      <use xlink:href="#ArialMT-43"/>
      <use xlink:href="#ArialMT-6f" transform="translate(72.216797 0)"/>
      <use xlink:href="#ArialMT-65" transform="translate(127.832031 0)"/>
      <use xlink:href="#ArialMT-66" transform="translate(183.447266 0)"/>
      <use xlink:href="#ArialMT-66" transform="translate(209.480469 0)"/>
      <use xlink:href="#ArialMT-69" transform="translate(237.263672 0)"/>
      <use xlink:href="#ArialMT-63" transform="translate(259.480469 0)"/>
      <use xlink:href="#ArialMT-69" transform="translate(309.480469 0)"/>
      <use xlink:href="#ArialMT-65" transform="translate(331.697266 0)"/>
      <use xlink:href="#ArialMT-6e" transform="translate(387.3125 0)"/>
      <use xlink:href="#ArialMT-74" transform="translate(442.927734 0)"/>
      <use xlink:href="#ArialMT-20" transform="translate(470.710938 0)"/>
      <use xlink:href="#ArialMT-56" transform="translate(498.494141 0)"/>
      <use xlink:href="#ArialMT-61" transform="translate(557.818359 0)"/>
      <use xlink:href="#ArialMT-6c" transform="translate(613.433594 0)"/>
      <use xlink:href="#ArialMT-75" transform="translate(635.650391 0)"/>
      <use xlink:href="#ArialMT-65" transform="translate(691.265625 0)"/>
     </g>
    </g>
   </g>
   <g id="matplotlib.axis_2">
    <g id="ytick_1">
     <g id="line2d_11">
      <path d="M 30.567031 499.94164 
L 705.757031 499.94164 
" clip-path="url(#p88cb8e1908)" style="fill: none; stroke: #cccccc; stroke-width: 0.8; stroke-linecap: round"/>
     </g>
     <g id="line2d_12"/>
     <g id="text_7">
      <!-- TCT -->
      <g style="fill: #262626" transform="translate(7.2 504.15) scale(0.11 -0.11)">
       <defs>
        <path id="DejaVuSansMono-54" d="M 147 4666 
L 3706 4666 
L 3706 4134 
L 2247 4134 
L 2247 0 
L 1613 0 
L 1613 4134 
L 147 4134 
L 147 4666 
z
" transform="scale(0.015625)"/>
        <path id="DejaVuSansMono-43" d="M 3353 166 
Q 3113 38 2859 -26 
Q 2606 -91 2322 -91 
Q 1425 -91 929 543 
Q 434 1178 434 2328 
Q 434 3472 932 4111 
Q 1431 4750 2322 4750 
Q 2606 4750 2859 4686 
Q 3113 4622 3353 4494 
L 3353 3847 
Q 3122 4038 2856 4138 
Q 2591 4238 2322 4238 
Q 1706 4238 1400 3763 
Q 1094 3288 1094 2328 
Q 1094 1372 1400 897 
Q 1706 422 2322 422 
Q 2597 422 2861 522 
Q 3125 622 3353 813 
L 3353 166 
z
" transform="scale(0.015625)"/>
       </defs>
       <use xlink:href="#DejaVuSansMono-54"/>
       <use xlink:href="#DejaVuSansMono-43" transform="translate(60.205078 0)"/>
       <use xlink:href="#DejaVuSansMono-54" transform="translate(120.410156 0)"/>
      </g>
     </g>
    </g>
    <g id="ytick_2">
     <g id="line2d_13">
      <path d="M 30.567031 476.542471 
L 705.757031 476.542471 
" clip-path="url(#p88cb8e1908)" style="fill: none; stroke: #cccccc; stroke-width: 0.8; stroke-linecap: round"/>
     </g>
     <g id="line2d_14"/>
     <g id="text_8">
      <!-- CGC -->
      <g style="fill: #262626" transform="translate(7.2 480.75083) scale(0.11 -0.11)">
       <defs>
        <path id="DejaVuSansMono-47" d="M 3450 384 
Q 3197 150 2880 29 
Q 2563 -91 2194 -91 
Q 1306 -91 812 545 
Q 319 1181 319 2328 
Q 319 3472 819 4111 
Q 1319 4750 2209 4750 
Q 2503 4750 2772 4667 
Q 3041 4584 3291 4416 
L 3291 3769 
Q 3038 4009 2772 4123 
Q 2506 4238 2209 4238 
Q 1594 4238 1286 3761 
Q 978 3284 978 2328 
Q 978 1356 1276 889 
Q 1575 422 2194 422 
Q 2403 422 2561 470 
Q 2719 519 2847 622 
L 2847 1875 
L 2169 1875 
L 2169 2394 
L 3450 2394 
L 3450 384 
z
" transform="scale(0.015625)"/>
       </defs>
       <use xlink:href="#DejaVuSansMono-43"/>
       <use xlink:href="#DejaVuSansMono-47" transform="translate(60.205078 0)"/>
       <use xlink:href="#DejaVuSansMono-43" transform="translate(120.410156 0)"/>
      </g>
     </g>
    </g>
    <g id="ytick_3">
     <g id="line2d_15">
      <path d="M 30.567031 453.143301 
L 705.757031 453.143301 
" clip-path="url(#p88cb8e1908)" style="fill: none; stroke: #cccccc; stroke-width: 0.8; stroke-linecap: round"/>
     </g>
     <g id="line2d_16"/>
     <g id="text_9">
      <!-- CAG -->
      <g style="fill: #262626" transform="translate(7.2 457.351661) scale(0.11 -0.11)">
       <defs>
        <path id="DejaVuSansMono-41" d="M 1925 4109 
L 1259 1722 
L 2591 1722 
L 1925 4109 
z
M 1544 4666 
L 2309 4666 
L 3738 0 
L 3084 0 
L 2741 1216 
L 1106 1216 
L 769 0 
L 116 0 
L 1544 4666 
z
" transform="scale(0.015625)"/>
       </defs>
       <use xlink:href="#DejaVuSansMono-43"/>
       <use xlink:href="#DejaVuSansMono-41" transform="translate(60.205078 0)"/>
       <use xlink:href="#DejaVuSansMono-47" transform="translate(120.410156 0)"/>
      </g>
     </g>
    </g>
    <g id="ytick_4">
     <g id="line2d_17">
      <path d="M 30.567031 429.744132 
L 705.757031 429.744132 
" clip-path="url(#p88cb8e1908)" style="fill: none; stroke: #cccccc; stroke-width: 0.8; stroke-linecap: round"/>
     </g>
     <g id="line2d_18"/>
     <g id="text_10">
      <!-- GTC -->
      <g style="fill: #262626" transform="translate(7.2 433.952491) scale(0.11 -0.11)">
       <use xlink:href="#DejaVuSansMono-47"/>
       <use xlink:href="#DejaVuSansMono-54" transform="translate(60.205078 0)"/>
       <use xlink:href="#DejaVuSansMono-43" transform="translate(120.410156 0)"/>
      </g>
     </g>
    </g>
    <g id="ytick_5">
     <g id="line2d_19">
      <path d="M 30.567031 406.344963 
L 705.757031 406.344963 
" clip-path="url(#p88cb8e1908)" style="fill: none; stroke: #cccccc; stroke-width: 0.8; stroke-linecap: round"/>
     </g>
     <g id="line2d_20"/>
     <g id="text_11">
      <!-- GGT -->
      <g style="fill: #262626" transform="translate(7.2 410.553322) scale(0.11 -0.11)">
       <use xlink:href="#DejaVuSansMono-47"/>
       <use xlink:href="#DejaVuSansMono-47" transform="translate(60.205078 0)"/>
       <use xlink:href="#DejaVuSansMono-54" transform="translate(120.410156 0)"/>
      </g>
     </g>
    </g>
    <g id="ytick_6">
     <g id="line2d_21">
      <path d="M 30.567031 382.945793 
L 705.757031 382.945793 
" clip-path="url(#p88cb8e1908)" style="fill: none; stroke: #cccccc; stroke-width: 0.8; stroke-linecap: round"/>
     </g>
     <g id="line2d_22"/>
     <g id="text_12">
      <!-- ACG -->
      <g style="fill: #262626" transform="translate(7.2 387.154153) scale(0.11 -0.11)">
       <use xlink:href="#DejaVuSansMono-41"/>
       <use xlink:href="#DejaVuSansMono-43" transform="translate(60.205078 0)"/>
       <use xlink:href="#DejaVuSansMono-47" transform="translate(120.410156 0)"/>
      </g>
     </g>
    </g>
    <g id="ytick_7">
     <g id="line2d_23">
      <path d="M 30.567031 359.546624 
L 705.757031 359.546624 
" clip-path="url(#p88cb8e1908)" style="fill: none; stroke: #cccccc; stroke-width: 0.8; stroke-linecap: round"/>
     </g>
     <g id="line2d_24"/>
     <g id="text_13">
      <!-- AGA -->
      <g style="fill: #262626" transform="translate(7.2 363.754983) scale(0.11 -0.11)">
       <use xlink:href="#DejaVuSansMono-41"/>
       <use xlink:href="#DejaVuSansMono-47" transform="translate(60.205078 0)"/>
       <use xlink:href="#DejaVuSansMono-41" transform="translate(120.410156 0)"/>
      </g>
     </g>
    </g>
    <g id="ytick_8">
     <g id="line2d_25">
      <path d="M 30.567031 336.147455 
L 705.757031 336.147455 
" clip-path="url(#p88cb8e1908)" style="fill: none; stroke: #cccccc; stroke-width: 0.8; stroke-linecap: round"/>
     </g>
     <g id="line2d_26"/>
     <g id="text_14">
      <!-- GCG -->
      <g style="fill: #262626" transform="translate(7.2 340.355814) scale(0.11 -0.11)">
       <use xlink:href="#DejaVuSansMono-47"/>
       <use xlink:href="#DejaVuSansMono-43" transform="translate(60.205078 0)"/>
       <use xlink:href="#DejaVuSansMono-47" transform="translate(120.410156 0)"/>
      </g>
     </g>
    </g>
    <g id="ytick_9">
     <g id="line2d_27">
      <path d="M 30.567031 312.748285 
L 705.757031 312.748285 
" clip-path="url(#p88cb8e1908)" style="fill: none; stroke: #cccccc; stroke-width: 0.8; stroke-linecap: round"/>
     </g>
     <g id="line2d_28"/>
     <g id="text_15">
      <!-- CTG -->
      <g style="fill: #262626" transform="translate(7.2 316.956645) scale(0.11 -0.11)">
       <use xlink:href="#DejaVuSansMono-43"/>
       <use xlink:href="#DejaVuSansMono-54" transform="translate(60.205078 0)"/>
       <use xlink:href="#DejaVuSansMono-47" transform="translate(120.410156 0)"/>
      </g>
     </g>
    </g>
    <g id="ytick_10">
     <g id="line2d_29">
      <path d="M 30.567031 289.349116 
L 705.757031 289.349116 
" clip-path="url(#p88cb8e1908)" style="fill: none; stroke: #cccccc; stroke-width: 0.8; stroke-linecap: round"/>
     </g>
     <g id="line2d_30"/>
     <g id="text_16">
      <!-- CTA -->
      <g style="fill: #262626" transform="translate(7.2 293.557475) scale(0.11 -0.11)">
       <use xlink:href="#DejaVuSansMono-43"/>
       <use xlink:href="#DejaVuSansMono-54" transform="translate(60.205078 0)"/>
       <use xlink:href="#DejaVuSansMono-41" transform="translate(120.410156 0)"/>
      </g>
     </g>
    </g>
    <g id="ytick_11">
     <g id="line2d_31">
      <path d="M 30.567031 265.949947 
L 705.757031 265.949947 
" clip-path="url(#p88cb8e1908)" style="fill: none; stroke: #cccccc; stroke-width: 0.8; stroke-linecap: round"/>
     </g>
     <g id="line2d_32"/>
     <g id="text_17">
      <!-- GCA -->
      <g style="fill: #262626" transform="translate(7.2 270.158306) scale(0.11 -0.11)">
       <use xlink:href="#DejaVuSansMono-47"/>
       <use xlink:href="#DejaVuSansMono-43" transform="translate(60.205078 0)"/>
       <use xlink:href="#DejaVuSansMono-41" transform="translate(120.410156 0)"/>
      </g>
     </g>
    </g>
    <g id="ytick_12">
     <g id="line2d_33">
      <path d="M 30.567031 242.550777 
L 705.757031 242.550777 
" clip-path="url(#p88cb8e1908)" style="fill: none; stroke: #cccccc; stroke-width: 0.8; stroke-linecap: round"/>
     </g>
     <g id="line2d_34"/>
     <g id="text_18">
      <!-- TAC -->
      <g style="fill: #262626" transform="translate(7.2 246.759137) scale(0.11 -0.11)">
       <use xlink:href="#DejaVuSansMono-54"/>
       <use xlink:href="#DejaVuSansMono-41" transform="translate(60.205078 0)"/>
       <use xlink:href="#DejaVuSansMono-43" transform="translate(120.410156 0)"/>
      </g>
     </g>
    </g>
    <g id="ytick_13">
     <g id="line2d_35">
      <path d="M 30.567031 219.151608 
L 705.757031 219.151608 
" clip-path="url(#p88cb8e1908)" style="fill: none; stroke: #cccccc; stroke-width: 0.8; stroke-linecap: round"/>
     </g>
     <g id="line2d_36"/>
     <g id="text_19">
      <!-- GAC -->
      <g style="fill: #262626" transform="translate(7.2 223.359967) scale(0.11 -0.11)">
       <use xlink:href="#DejaVuSansMono-47"/>
       <use xlink:href="#DejaVuSansMono-41" transform="translate(60.205078 0)"/>
       <use xlink:href="#DejaVuSansMono-43" transform="translate(120.410156 0)"/>
      </g>
     </g>
    </g>
    <g id="ytick_14">
     <g id="line2d_37">
      <path d="M 30.567031 195.752438 
L 705.757031 195.752438 
" clip-path="url(#p88cb8e1908)" style="fill: none; stroke: #cccccc; stroke-width: 0.8; stroke-linecap: round"/>
     </g>
     <g id="line2d_38"/>
     <g id="text_20">
      <!-- GAT -->
      <g style="fill: #262626" transform="translate(7.2 199.960798) scale(0.11 -0.11)">
       <use xlink:href="#DejaVuSansMono-47"/>
       <use xlink:href="#DejaVuSansMono-41" transform="translate(60.205078 0)"/>
       <use xlink:href="#DejaVuSansMono-54" transform="translate(120.410156 0)"/>
      </g>
     </g>
    </g>
    <g id="ytick_15">
     <g id="line2d_39">
      <path d="M 30.567031 172.353269 
L 705.757031 172.353269 
" clip-path="url(#p88cb8e1908)" style="fill: none; stroke: #cccccc; stroke-width: 0.8; stroke-linecap: round"/>
     </g>
     <g id="line2d_40"/>
     <g id="text_21">
      <!-- CGT -->
      <g style="fill: #262626" transform="translate(7.2 176.561629) scale(0.11 -0.11)">
       <use xlink:href="#DejaVuSansMono-43"/>
       <use xlink:href="#DejaVuSansMono-47" transform="translate(60.205078 0)"/>
       <use xlink:href="#DejaVuSansMono-54" transform="translate(120.410156 0)"/>
      </g>
     </g>
    </g>
    <g id="ytick_16">
     <g id="line2d_41">
      <path d="M 30.567031 148.9541 
L 705.757031 148.9541 
" clip-path="url(#p88cb8e1908)" style="fill: none; stroke: #cccccc; stroke-width: 0.8; stroke-linecap: round"/>
     </g>
     <g id="line2d_42"/>
     <g id="text_22">
      <!-- GTA -->
      <g style="fill: #262626" transform="translate(7.2 153.162459) scale(0.11 -0.11)">
       <use xlink:href="#DejaVuSansMono-47"/>
       <use xlink:href="#DejaVuSansMono-54" transform="translate(60.205078 0)"/>
       <use xlink:href="#DejaVuSansMono-41" transform="translate(120.410156 0)"/>
      </g>
     </g>
    </g>
    <g id="ytick_17">
     <g id="line2d_43">
      <path d="M 30.567031 125.55493 
L 705.757031 125.55493 
" clip-path="url(#p88cb8e1908)" style="fill: none; stroke: #cccccc; stroke-width: 0.8; stroke-linecap: round"/>
     </g>
     <g id="line2d_44"/>
     <g id="text_23">
      <!-- TCG -->
      <g style="fill: #262626" transform="translate(7.2 129.76329) scale(0.11 -0.11)">
       <use xlink:href="#DejaVuSansMono-54"/>
       <use xlink:href="#DejaVuSansMono-43" transform="translate(60.205078 0)"/>
       <use xlink:href="#DejaVuSansMono-47" transform="translate(120.410156 0)"/>
      </g>
     </g>
    </g>
    <g id="ytick_18">
     <g id="line2d_45">
      <path d="M 30.567031 102.155761 
L 705.757031 102.155761 
" clip-path="url(#p88cb8e1908)" style="fill: none; stroke: #cccccc; stroke-width: 0.8; stroke-linecap: round"/>
     </g>
     <g id="line2d_46"/>
     <g id="text_24">
      <!-- AAA -->
      <g style="fill: #262626" transform="translate(7.2 106.36412) scale(0.11 -0.11)">
       <use xlink:href="#DejaVuSansMono-41"/>
       <use xlink:href="#DejaVuSansMono-41" transform="translate(60.205078 0)"/>
       <use xlink:href="#DejaVuSansMono-41" transform="translate(120.410156 0)"/>
      </g>
     </g>
    </g>
    <g id="ytick_19">
     <g id="line2d_47">
      <path d="M 30.567031 78.756592 
L 705.757031 78.756592 
" clip-path="url(#p88cb8e1908)" style="fill: none; stroke: #cccccc; stroke-width: 0.8; stroke-linecap: round"/>
     </g>
     <g id="line2d_48"/>
     <g id="text_25">
      <!-- TTT -->
      <g style="fill: #262626" transform="translate(7.2 82.964951) scale(0.11 -0.11)">
       <use xlink:href="#DejaVuSansMono-54"/>
       <use xlink:href="#DejaVuSansMono-54" transform="translate(60.205078 0)"/>
       <use xlink:href="#DejaVuSansMono-54" transform="translate(120.410156 0)"/>
      </g>
     </g>
    </g>
    <g id="ytick_20">
     <g id="line2d_49">
      <path d="M 30.567031 55.357422 
L 705.757031 55.357422 
" clip-path="url(#p88cb8e1908)" style="fill: none; stroke: #cccccc; stroke-width: 0.8; stroke-linecap: round"/>
     </g>
     <g id="line2d_50"/>
     <g id="text_26">
      <!-- CGA -->
      <g style="fill: #262626" transform="translate(7.2 59.565782) scale(0.11 -0.11)">
       <use xlink:href="#DejaVuSansMono-43"/>
       <use xlink:href="#DejaVuSansMono-47" transform="translate(60.205078 0)"/>
       <use xlink:href="#DejaVuSansMono-41" transform="translate(120.410156 0)"/>
      </g>
     </g>
    </g>
   </g>
   <g id="patch_3">
    <path d="M 371.843075 508.131349 
L 477.730873 508.131349 
L 477.730873 491.751931 
L 371.843075 491.751931 
z
" clip-path="url(#p88cb8e1908)" style="fill: #2196f3; stroke: #ffffff; stroke-width: 0.5; stroke-linejoin: miter"/>
   </g>
   <g id="patch_4">
    <path d="M 371.843075 484.73218 
L 487.242268 484.73218 
L 487.242268 468.352762 
L 371.843075 468.352762 
z
" clip-path="url(#p88cb8e1908)" style="fill: #2196f3; stroke: #ffffff; stroke-width: 0.5; stroke-linejoin: miter"/>
   </g>
   <g id="patch_5">
    <path d="M 371.843075 461.333011 
L 491.954922 461.333011 
L 491.954922 444.953592 
L 371.843075 444.953592 
z
" clip-path="url(#p88cb8e1908)" style="fill: #2196f3; stroke: #ffffff; stroke-width: 0.5; stroke-linejoin: miter"/>
   </g>
   <g id="patch_6">
    <path d="M 371.843075 437.933841 
L 250.813722 437.933841 
L 250.813722 421.554423 
L 371.843075 421.554423 
z
" clip-path="url(#p88cb8e1908)" style="fill: #ff5722; stroke: #ffffff; stroke-width: 0.5; stroke-linejoin: miter"/>
   </g>
   <g id="patch_7">
    <path d="M 371.843075 414.534672 
L 247.367182 414.534672 
L 247.367182 398.155253 
L 371.843075 398.155253 
z
" clip-path="url(#p88cb8e1908)" style="fill: #ff5722; stroke: #ffffff; stroke-width: 0.5; stroke-linejoin: miter"/>
   </g>
   <g id="patch_8">
    <path d="M 371.843075 391.135503 
L 241.976178 391.135503 
L 241.976178 374.756084 
L 371.843075 374.756084 
z
" clip-path="url(#p88cb8e1908)" style="fill: #ff5722; stroke: #ffffff; stroke-width: 0.5; stroke-linejoin: miter"/>
   </g>
   <g id="patch_9">
    <path d="M 371.843075 367.736333 
L 505.336147 367.736333 
L 505.336147 351.356915 
L 371.843075 351.356915 
z
" clip-path="url(#p88cb8e1908)" style="fill: #2196f3; stroke: #ffffff; stroke-width: 0.5; stroke-linejoin: miter"/>
   </g>
   <g id="patch_10">
    <path d="M 371.843075 344.337164 
L 505.714352 344.337164 
L 505.714352 327.957745 
L 371.843075 327.957745 
z
" clip-path="url(#p88cb8e1908)" style="fill: #2196f3; stroke: #ffffff; stroke-width: 0.5; stroke-linejoin: miter"/>
   </g>
   <g id="patch_11">
    <path d="M 371.843075 320.937995 
L 513.634417 320.937995 
L 513.634417 304.558576 
L 371.843075 304.558576 
z
" clip-path="url(#p88cb8e1908)" style="fill: #2196f3; stroke: #ffffff; stroke-width: 0.5; stroke-linejoin: miter"/>
   </g>
   <g id="patch_12">
    <path d="M 371.843075 297.538825 
L 228.286379 297.538825 
L 228.286379 281.159407 
L 371.843075 281.159407 
z
" clip-path="url(#p88cb8e1908)" style="fill: #ff5722; stroke: #ffffff; stroke-width: 0.5; stroke-linejoin: miter"/>
   </g>
   <g id="patch_13">
    <path d="M 371.843075 274.139656 
L 225.226127 274.139656 
L 225.226127 257.760237 
L 371.843075 257.760237 
z
" clip-path="url(#p88cb8e1908)" style="fill: #ff5722; stroke: #ffffff; stroke-width: 0.5; stroke-linejoin: miter"/>
   </g>
   <g id="patch_14">
    <path d="M 371.843075 250.740486 
L 221.403406 250.740486 
L 221.403406 234.361068 
L 371.843075 234.361068 
z
" clip-path="url(#p88cb8e1908)" style="fill: #ff5722; stroke: #ffffff; stroke-width: 0.5; stroke-linejoin: miter"/>
   </g>
   <g id="patch_15">
    <path d="M 371.843075 227.341317 
L 214.48976 227.341317 
L 214.48976 210.961899 
L 371.843075 210.961899 
z
" clip-path="url(#p88cb8e1908)" style="fill: #ff5722; stroke: #ffffff; stroke-width: 0.5; stroke-linejoin: miter"/>
   </g>
   <g id="patch_16">
    <path d="M 371.843075 203.942148 
L 185.635887 203.942148 
L 185.635887 187.562729 
L 371.843075 187.562729 
z
" clip-path="url(#p88cb8e1908)" style="fill: #ff5722; stroke: #ffffff; stroke-width: 0.5; stroke-linejoin: miter"/>
   </g>
   <g id="patch_17">
    <path d="M 371.843075 180.542978 
L 181.588419 180.542978 
L 181.588419 164.16356 
L 371.843075 164.16356 
z
" clip-path="url(#p88cb8e1908)" style="fill: #ff5722; stroke: #ffffff; stroke-width: 0.5; stroke-linejoin: miter"/>
   </g>
   <g id="patch_18">
    <path d="M 371.843075 157.143809 
L 177.898596 157.143809 
L 177.898596 140.764391 
L 371.843075 140.764391 
z
" clip-path="url(#p88cb8e1908)" style="fill: #ff5722; stroke: #ffffff; stroke-width: 0.5; stroke-linejoin: miter"/>
   </g>
   <g id="patch_19">
    <path d="M 371.843075 133.74464 
L 139.42322 133.74464 
L 139.42322 117.365221 
L 371.843075 117.365221 
z
" clip-path="url(#p88cb8e1908)" style="fill: #ff5722; stroke: #ffffff; stroke-width: 0.5; stroke-linejoin: miter"/>
   </g>
   <g id="patch_20">
    <path d="M 371.843075 110.34547 
L 674.796333 110.34547 
L 674.796333 93.966052 
L 371.843075 93.966052 
z
" clip-path="url(#p88cb8e1908)" style="fill: #2196f3; stroke: #ffffff; stroke-width: 0.5; stroke-linejoin: miter"/>
   </g>
   <g id="patch_21">
    <path d="M 371.843075 86.946301 
L 675.066577 86.946301 
L 675.066577 70.566882 
L 371.843075 70.566882 
z
" clip-path="url(#p88cb8e1908)" style="fill: #2196f3; stroke: #ffffff; stroke-width: 0.5; stroke-linejoin: miter"/>
   </g>
   <g id="patch_22">
    <path d="M 371.843075 63.547132 
L 61.257486 63.547132 
L 61.257486 47.167713 
L 371.843075 47.167713 
z
" clip-path="url(#p88cb8e1908)" style="fill: #ff5722; stroke: #ffffff; stroke-width: 0.5; stroke-linejoin: miter"/>
   </g>
   <g id="line2d_51">
    <path d="M 371.843075 531.179531 
L 371.843075 24.119531 
" clip-path="url(#p88cb8e1908)" style="fill: none; stroke: #000000; stroke-width: 0.8; stroke-linecap: round"/>
   </g>
   <g id="patch_23">
    <path d="M 30.567031 531.179531 
L 30.567031 24.119531 
" style="fill: none; stroke: #cccccc; stroke-linejoin: miter; stroke-linecap: square"/>
   </g>
   <g id="patch_24">
    <path d="M 705.757031 531.179531 
L 705.757031 24.119531 
" style="fill: none; stroke: #cccccc; stroke-linejoin: miter; stroke-linecap: square"/>
   </g>
   <g id="patch_25">
    <path d="M 30.567031 531.179531 
L 705.757031 531.179531 
" style="fill: none; stroke: #cccccc; stroke-linejoin: miter; stroke-linecap: square"/>
   </g>
   <g id="patch_26">
    <path d="M 30.567031 24.119531 
L 705.757031 24.119531 
" style="fill: none; stroke: #cccccc; stroke-linejoin: miter; stroke-linecap: square"/>
   </g>
   <g id="text_27">
    <!-- Logistic Regression — Top 20 K-mer Coefficients -->
    <g style="fill: #262626" transform="translate(192.444063 18.119531) scale(0.15 -0.15)">
     <defs>
      <path id="Arial-BoldMT-4c" d="M 491 0 
L 491 4544 
L 1416 4544 
L 1416 772 
L 3716 772 
L 3716 0 
L 491 0 
z
" transform="scale(0.015625)"/>
      <path id="Arial-BoldMT-6f" d="M 256 1706 
Q 256 2144 472 2553 
Q 688 2963 1083 3178 
Q 1478 3394 1966 3394 
Q 2719 3394 3200 2905 
Q 3681 2416 3681 1669 
Q 3681 916 3195 420 
Q 2709 -75 1972 -75 
Q 1516 -75 1102 131 
Q 688 338 472 736 
Q 256 1134 256 1706 
z
M 1156 1659 
Q 1156 1166 1390 903 
Q 1625 641 1969 641 
Q 2313 641 2545 903 
Q 2778 1166 2778 1666 
Q 2778 2153 2545 2415 
Q 2313 2678 1969 2678 
Q 1625 2678 1390 2415 
Q 1156 2153 1156 1659 
z
" transform="scale(0.015625)"/>
      <path id="Arial-BoldMT-67" d="M 378 -219 
L 1381 -341 
Q 1406 -516 1497 -581 
Q 1622 -675 1891 -675 
Q 2234 -675 2406 -572 
Q 2522 -503 2581 -350 
Q 2622 -241 2622 53 
L 2622 538 
Q 2228 0 1628 0 
Q 959 0 569 566 
Q 263 1013 263 1678 
Q 263 2513 664 2953 
Q 1066 3394 1663 3394 
Q 2278 3394 2678 2853 
L 2678 3319 
L 3500 3319 
L 3500 341 
Q 3500 -247 3403 -537 
Q 3306 -828 3131 -993 
Q 2956 -1159 2664 -1253 
Q 2372 -1347 1925 -1347 
Q 1081 -1347 728 -1058 
Q 375 -769 375 -325 
Q 375 -281 378 -219 
z
M 1163 1728 
Q 1163 1200 1367 954 
Q 1572 709 1872 709 
Q 2194 709 2416 961 
Q 2638 1213 2638 1706 
Q 2638 2222 2425 2472 
Q 2213 2722 1888 2722 
Q 1572 2722 1367 2476 
Q 1163 2231 1163 1728 
z
" transform="scale(0.015625)"/>
      <path id="Arial-BoldMT-69" d="M 459 3769 
L 459 4581 
L 1338 4581 
L 1338 3769 
L 459 3769 
z
M 459 0 
L 459 3319 
L 1338 3319 
L 1338 0 
L 459 0 
z
" transform="scale(0.015625)"/>
      <path id="Arial-BoldMT-73" d="M 150 947 
L 1031 1081 
Q 1088 825 1259 692 
Q 1431 559 1741 559 
Q 2081 559 2253 684 
Q 2369 772 2369 919 
Q 2369 1019 2306 1084 
Q 2241 1147 2013 1200 
Q 950 1434 666 1628 
Q 272 1897 272 2375 
Q 272 2806 612 3100 
Q 953 3394 1669 3394 
Q 2350 3394 2681 3172 
Q 3013 2950 3138 2516 
L 2309 2363 
Q 2256 2556 2107 2659 
Q 1959 2763 1684 2763 
Q 1338 2763 1188 2666 
Q 1088 2597 1088 2488 
Q 1088 2394 1175 2328 
Q 1294 2241 1995 2081 
Q 2697 1922 2975 1691 
Q 3250 1456 3250 1038 
Q 3250 581 2869 253 
Q 2488 -75 1741 -75 
Q 1063 -75 667 200 
Q 272 475 150 947 
z
" transform="scale(0.015625)"/>
      <path id="Arial-BoldMT-74" d="M 1981 3319 
L 1981 2619 
L 1381 2619 
L 1381 1281 
Q 1381 875 1398 808 
Q 1416 741 1477 697 
Q 1538 653 1625 653 
Q 1747 653 1978 738 
L 2053 56 
Q 1747 -75 1359 -75 
Q 1122 -75 931 4 
Q 741 84 652 211 
Q 563 338 528 553 
Q 500 706 500 1172 
L 500 2619 
L 97 2619 
L 97 3319 
L 500 3319 
L 500 3978 
L 1381 4491 
L 1381 3319 
L 1981 3319 
z
" transform="scale(0.015625)"/>
      <path id="Arial-BoldMT-63" d="M 3353 2338 
L 2488 2181 
Q 2444 2441 2289 2572 
Q 2134 2703 1888 2703 
Q 1559 2703 1364 2476 
Q 1169 2250 1169 1719 
Q 1169 1128 1367 884 
Q 1566 641 1900 641 
Q 2150 641 2309 783 
Q 2469 925 2534 1272 
L 3397 1125 
Q 3263 531 2881 228 
Q 2500 -75 1859 -75 
Q 1131 -75 698 384 
Q 266 844 266 1656 
Q 266 2478 700 2936 
Q 1134 3394 1875 3394 
Q 2481 3394 2839 3133 
Q 3197 2872 3353 2338 
z
" transform="scale(0.015625)"/>
      <path id="Arial-BoldMT-20" transform="scale(0.015625)"/>
      <path id="Arial-BoldMT-52" d="M 469 0 
L 469 4581 
L 2416 4581 
Q 3150 4581 3483 4457 
Q 3816 4334 4016 4018 
Q 4216 3703 4216 3297 
Q 4216 2781 3912 2445 
Q 3609 2109 3006 2022 
Q 3306 1847 3501 1637 
Q 3697 1428 4028 894 
L 4588 0 
L 3481 0 
L 2813 997 
Q 2456 1531 2325 1670 
Q 2194 1809 2047 1861 
Q 1900 1913 1581 1913 
L 1394 1913 
L 1394 0 
L 469 0 
z
M 1394 2644 
L 2078 2644 
Q 2744 2644 2909 2700 
Q 3075 2756 3169 2893 
Q 3263 3031 3263 3238 
Q 3263 3469 3139 3611 
Q 3016 3753 2791 3791 
Q 2678 3806 2116 3806 
L 1394 3806 
L 1394 2644 
z
" transform="scale(0.015625)"/>
      <path id="Arial-BoldMT-65" d="M 2381 1056 
L 3256 909 
Q 3088 428 2723 176 
Q 2359 -75 1813 -75 
Q 947 -75 531 491 
Q 203 944 203 1634 
Q 203 2459 634 2926 
Q 1066 3394 1725 3394 
Q 2466 3394 2894 2905 
Q 3322 2416 3303 1406 
L 1103 1406 
Q 1113 1016 1316 798 
Q 1519 581 1822 581 
Q 2028 581 2168 693 
Q 2309 806 2381 1056 
z
M 2431 1944 
Q 2422 2325 2234 2523 
Q 2047 2722 1778 2722 
Q 1491 2722 1303 2513 
Q 1116 2303 1119 1944 
L 2431 1944 
z
" transform="scale(0.015625)"/>
      <path id="Arial-BoldMT-72" d="M 1300 0 
L 422 0 
L 422 3319 
L 1238 3319 
L 1238 2847 
Q 1447 3181 1614 3287 
Q 1781 3394 1994 3394 
Q 2294 3394 2572 3228 
L 2300 2463 
Q 2078 2606 1888 2606 
Q 1703 2606 1575 2504 
Q 1447 2403 1373 2137 
Q 1300 1872 1300 1025 
L 1300 0 
z
" transform="scale(0.015625)"/>
      <path id="Arial-BoldMT-6e" d="M 3478 0 
L 2600 0 
L 2600 1694 
Q 2600 2231 2544 2389 
Q 2488 2547 2361 2634 
Q 2234 2722 2056 2722 
Q 1828 2722 1647 2597 
Q 1466 2472 1398 2265 
Q 1331 2059 1331 1503 
L 1331 0 
L 453 0 
L 453 3319 
L 1269 3319 
L 1269 2831 
Q 1703 3394 2363 3394 
Q 2653 3394 2893 3289 
Q 3134 3184 3257 3021 
Q 3381 2859 3429 2653 
Q 3478 2447 3478 2063 
L 3478 0 
z
" transform="scale(0.015625)"/>
      <path id="Arial-BoldMT-2014" d="M 0 1331 
L 0 1988 
L 6400 1988 
L 6400 1331 
L 0 1331 
z
" transform="scale(0.015625)"/>
      <path id="Arial-BoldMT-54" d="M 1497 0 
L 1497 3806 
L 138 3806 
L 138 4581 
L 3778 4581 
L 3778 3806 
L 2422 3806 
L 2422 0 
L 1497 0 
z
" transform="scale(0.015625)"/>
      <path id="Arial-BoldMT-70" d="M 434 3319 
L 1253 3319 
L 1253 2831 
Q 1413 3081 1684 3237 
Q 1956 3394 2288 3394 
Q 2866 3394 3269 2941 
Q 3672 2488 3672 1678 
Q 3672 847 3265 386 
Q 2859 -75 2281 -75 
Q 2006 -75 1782 34 
Q 1559 144 1313 409 
L 1313 -1263 
L 434 -1263 
L 434 3319 
z
M 1303 1716 
Q 1303 1156 1525 889 
Q 1747 622 2066 622 
Q 2372 622 2575 867 
Q 2778 1113 2778 1672 
Q 2778 2194 2568 2447 
Q 2359 2700 2050 2700 
Q 1728 2700 1515 2451 
Q 1303 2203 1303 1716 
z
" transform="scale(0.015625)"/>
      <path id="Arial-BoldMT-32" d="M 3238 816 
L 3238 0 
L 159 0 
Q 209 463 459 877 
Q 709 1291 1447 1975 
Q 2041 2528 2175 2725 
Q 2356 2997 2356 3263 
Q 2356 3556 2198 3714 
Q 2041 3872 1763 3872 
Q 1488 3872 1325 3706 
Q 1163 3541 1138 3156 
L 263 3244 
Q 341 3969 753 4284 
Q 1166 4600 1784 4600 
Q 2463 4600 2850 4234 
Q 3238 3869 3238 3325 
Q 3238 3016 3127 2736 
Q 3016 2456 2775 2150 
Q 2616 1947 2200 1565 
Q 1784 1184 1673 1059 
Q 1563 934 1494 816 
L 3238 816 
z
" transform="scale(0.015625)"/>
      <path id="Arial-BoldMT-30" d="M 1756 4600 
Q 2422 4600 2797 4125 
Q 3244 3563 3244 2259 
Q 3244 959 2794 391 
Q 2422 -78 1756 -78 
Q 1088 -78 678 436 
Q 269 950 269 2269 
Q 269 3563 719 4131 
Q 1091 4600 1756 4600 
z
M 1756 3872 
Q 1597 3872 1472 3770 
Q 1347 3669 1278 3406 
Q 1188 3066 1188 2259 
Q 1188 1453 1269 1151 
Q 1350 850 1473 750 
Q 1597 650 1756 650 
Q 1916 650 2041 751 
Q 2166 853 2234 1116 
Q 2325 1453 2325 2259 
Q 2325 3066 2244 3367 
Q 2163 3669 2039 3770 
Q 1916 3872 1756 3872 
z
" transform="scale(0.015625)"/>
      <path id="Arial-BoldMT-4b" d="M 478 0 
L 478 4581 
L 1403 4581 
L 1403 2547 
L 3272 4581 
L 4516 4581 
L 2791 2797 
L 4609 0 
L 3413 0 
L 2153 2150 
L 1403 1384 
L 1403 0 
L 478 0 
z
" transform="scale(0.015625)"/>
      <path id="Arial-BoldMT-2d" d="M 359 1222 
L 359 2100 
L 2084 2100 
L 2084 1222 
L 359 1222 
z
" transform="scale(0.015625)"/>
      <path id="Arial-BoldMT-6d" d="M 394 3319 
L 1203 3319 
L 1203 2866 
Q 1638 3394 2238 3394 
Q 2556 3394 2790 3262 
Q 3025 3131 3175 2866 
Q 3394 3131 3647 3262 
Q 3900 3394 4188 3394 
Q 4553 3394 4806 3245 
Q 5059 3097 5184 2809 
Q 5275 2597 5275 2122 
L 5275 0 
L 4397 0 
L 4397 1897 
Q 4397 2391 4306 2534 
Q 4184 2722 3931 2722 
Q 3747 2722 3584 2609 
Q 3422 2497 3350 2280 
Q 3278 2063 3278 1594 
L 3278 0 
L 2400 0 
L 2400 1819 
Q 2400 2303 2353 2443 
Q 2306 2584 2207 2653 
Q 2109 2722 1941 2722 
Q 1738 2722 1575 2612 
Q 1413 2503 1342 2297 
Q 1272 2091 1272 1613 
L 1272 0 
L 394 0 
L 394 3319 
z
" transform="scale(0.015625)"/>
      <path id="Arial-BoldMT-43" d="M 3397 1684 
L 4294 1400 
Q 4088 650 3608 286 
Q 3128 -78 2391 -78 
Q 1478 -78 890 545 
Q 303 1169 303 2250 
Q 303 3394 893 4026 
Q 1484 4659 2447 4659 
Q 3288 4659 3813 4163 
Q 4125 3869 4281 3319 
L 3366 3100 
Q 3284 3456 3026 3662 
Q 2769 3869 2400 3869 
Q 1891 3869 1573 3503 
Q 1256 3138 1256 2319 
Q 1256 1450 1568 1081 
Q 1881 713 2381 713 
Q 2750 713 3015 947 
Q 3281 1181 3397 1684 
z
" transform="scale(0.015625)"/>
      <path id="Arial-BoldMT-66" d="M 75 3319 
L 563 3319 
L 563 3569 
Q 563 3988 652 4194 
Q 741 4400 980 4529 
Q 1219 4659 1584 4659 
Q 1959 4659 2319 4547 
L 2200 3934 
Q 1991 3984 1797 3984 
Q 1606 3984 1523 3895 
Q 1441 3806 1441 3553 
L 1441 3319 
L 2097 3319 
L 2097 2628 
L 1441 2628 
L 1441 0 
L 563 0 
L 563 2628 
L 75 2628 
L 75 3319 
z
" transform="scale(0.015625)"/>
     </defs>
     <use xlink:href="#Arial-BoldMT-4c"/>
     <use xlink:href="#Arial-BoldMT-6f" transform="translate(61.083984 0)"/>
     <use xlink:href="#Arial-BoldMT-67" transform="translate(122.167969 0)"/>
     <use xlink:href="#Arial-BoldMT-69" transform="translate(183.251953 0)"/>
     <use xlink:href="#Arial-BoldMT-73" transform="translate(211.035156 0)"/>
     <use xlink:href="#Arial-BoldMT-74" transform="translate(266.650391 0)"/>
     <use xlink:href="#Arial-BoldMT-69" transform="translate(299.951172 0)"/>
     <use xlink:href="#Arial-BoldMT-63" transform="translate(327.734375 0)"/>
     <use xlink:href="#Arial-BoldMT-20" transform="translate(383.349609 0)"/>
     <use xlink:href="#Arial-BoldMT-52" transform="translate(411.132812 0)"/>
     <use xlink:href="#Arial-BoldMT-65" transform="translate(483.349609 0)"/>
     <use xlink:href="#Arial-BoldMT-67" transform="translate(538.964844 0)"/>
     <use xlink:href="#Arial-BoldMT-72" transform="translate(600.048828 0)"/>
     <use xlink:href="#Arial-BoldMT-65" transform="translate(638.964844 0)"/>
     <use xlink:href="#Arial-BoldMT-73" transform="translate(694.580078 0)"/>
     <use xlink:href="#Arial-BoldMT-73" transform="translate(750.195312 0)"/>
     <use xlink:href="#Arial-BoldMT-69" transform="translate(805.810547 0)"/>
     <use xlink:href="#Arial-BoldMT-6f" transform="translate(833.59375 0)"/>
     <use xlink:href="#Arial-BoldMT-6e" transform="translate(894.677734 0)"/>
     <use xlink:href="#Arial-BoldMT-20" transform="translate(955.761719 0)"/>
     <use xlink:href="#Arial-BoldMT-2014" transform="translate(983.544922 0)"/>
     <use xlink:href="#Arial-BoldMT-20" transform="translate(1083.544922 0)"/>
     <use xlink:href="#Arial-BoldMT-54" transform="translate(1111.328125 0)"/>
     <use xlink:href="#Arial-BoldMT-6f" transform="translate(1165.037109 0)"/>
     <use xlink:href="#Arial-BoldMT-70" transform="translate(1226.121094 0)"/>
     <use xlink:href="#Arial-BoldMT-20" transform="translate(1287.205078 0)"/>
     <use xlink:href="#Arial-BoldMT-32" transform="translate(1314.988281 0)"/>
     <use xlink:href="#Arial-BoldMT-30" transform="translate(1370.603516 0)"/>
     <use xlink:href="#Arial-BoldMT-20" transform="translate(1426.21875 0)"/>
     <use xlink:href="#Arial-BoldMT-4b" transform="translate(1454.001953 0)"/>
     <use xlink:href="#Arial-BoldMT-2d" transform="translate(1526.21875 0)"/>
     <use xlink:href="#Arial-BoldMT-6d" transform="translate(1559.519531 0)"/>
     <use xlink:href="#Arial-BoldMT-65" transform="translate(1648.435547 0)"/>
     <use xlink:href="#Arial-BoldMT-72" transform="translate(1704.050781 0)"/>
     <use xlink:href="#Arial-BoldMT-20" transform="translate(1742.966797 0)"/>
     <use xlink:href="#Arial-BoldMT-43" transform="translate(1770.75 0)"/>
     <use xlink:href="#Arial-BoldMT-6f" transform="translate(1842.966797 0)"/>
     <use xlink:href="#Arial-BoldMT-65" transform="translate(1904.050781 0)"/>
     <use xlink:href="#Arial-BoldMT-66" transform="translate(1959.666016 0)"/>
     <use xlink:href="#Arial-BoldMT-66" transform="translate(1992.966797 0)"/>
     <use xlink:href="#Arial-BoldMT-69" transform="translate(2026.267578 0)"/>
     <use xlink:href="#Arial-BoldMT-63" transform="translate(2054.050781 0)"/>
     <use xlink:href="#Arial-BoldMT-69" transform="translate(2109.666016 0)"/>
     <use xlink:href="#Arial-BoldMT-65" transform="translate(2137.449219 0)"/>
     <use xlink:href="#Arial-BoldMT-6e" transform="translate(2193.064453 0)"/>
     <use xlink:href="#Arial-BoldMT-74" transform="translate(2254.148438 0)"/>
     <use xlink:href="#Arial-BoldMT-73" transform="translate(2287.449219 0)"/>
    </g>
   </g>
   <g id="legend_1">
    <g id="patch_27">
     <path d="M 540.669375 503.141563 
L 562.669375 503.141563 
L 562.669375 495.441563 
L 540.669375 495.441563 
z
" style="fill: #2196f3"/>
    </g>
    <g id="text_28">
     <!-- Toward Promoter (+) -->
     <g style="fill: #262626" transform="translate(571.469375 503.141563) scale(0.11 -0.11)">
      <defs>
       <path id="ArialMT-54" d="M 1659 0 
L 1659 4041 
L 150 4041 
L 150 4581 
L 3781 4581 
L 3781 4041 
L 2266 4041 
L 2266 0 
L 1659 0 
z
" transform="scale(0.015625)"/>
       <path id="ArialMT-77" d="M 1034 0 
L 19 3319 
L 600 3319 
L 1128 1403 
L 1325 691 
Q 1338 744 1497 1375 
L 2025 3319 
L 2603 3319 
L 3100 1394 
L 3266 759 
L 3456 1400 
L 4025 3319 
L 4572 3319 
L 3534 0 
L 2950 0 
L 2422 1988 
L 2294 2553 
L 1622 0 
L 1034 0 
z
" transform="scale(0.015625)"/>
       <path id="ArialMT-72" d="M 416 0 
L 416 3319 
L 922 3319 
L 922 2816 
Q 1116 3169 1280 3281 
Q 1444 3394 1641 3394 
Q 1925 3394 2219 3213 
L 2025 2691 
Q 1819 2813 1613 2813 
Q 1428 2813 1281 2702 
Q 1134 2591 1072 2394 
Q 978 2094 978 1738 
L 978 0 
L 416 0 
z
" transform="scale(0.015625)"/>
       <path id="ArialMT-64" d="M 2575 0 
L 2575 419 
Q 2259 -75 1647 -75 
Q 1250 -75 917 144 
Q 584 363 401 755 
Q 219 1147 219 1656 
Q 219 2153 384 2558 
Q 550 2963 881 3178 
Q 1213 3394 1622 3394 
Q 1922 3394 2156 3267 
Q 2391 3141 2538 2938 
L 2538 4581 
L 3097 4581 
L 3097 0 
L 2575 0 
z
M 797 1656 
Q 797 1019 1065 703 
Q 1334 388 1700 388 
Q 2069 388 2326 689 
Q 2584 991 2584 1609 
Q 2584 2291 2321 2609 
Q 2059 2928 1675 2928 
Q 1300 2928 1048 2622 
Q 797 2316 797 1656 
z
" transform="scale(0.015625)"/>
       <path id="ArialMT-50" d="M 494 0 
L 494 4581 
L 2222 4581 
Q 2678 4581 2919 4538 
Q 3256 4481 3484 4323 
Q 3713 4166 3852 3881 
Q 3991 3597 3991 3256 
Q 3991 2672 3619 2267 
Q 3247 1863 2275 1863 
L 1100 1863 
L 1100 0 
L 494 0 
z
M 1100 2403 
L 2284 2403 
Q 2872 2403 3119 2622 
Q 3366 2841 3366 3238 
Q 3366 3525 3220 3729 
Q 3075 3934 2838 4000 
Q 2684 4041 2272 4041 
L 1100 4041 
L 1100 2403 
z
" transform="scale(0.015625)"/>
       <path id="ArialMT-6d" d="M 422 0 
L 422 3319 
L 925 3319 
L 925 2853 
Q 1081 3097 1340 3245 
Q 1600 3394 1931 3394 
Q 2300 3394 2536 3241 
Q 2772 3088 2869 2813 
Q 3263 3394 3894 3394 
Q 4388 3394 4653 3120 
Q 4919 2847 4919 2278 
L 4919 0 
L 4359 0 
L 4359 2091 
Q 4359 2428 4304 2576 
Q 4250 2725 4106 2815 
Q 3963 2906 3769 2906 
Q 3419 2906 3187 2673 
Q 2956 2441 2956 1928 
L 2956 0 
L 2394 0 
L 2394 2156 
Q 2394 2531 2256 2718 
Q 2119 2906 1806 2906 
Q 1569 2906 1367 2781 
Q 1166 2656 1075 2415 
Q 984 2175 984 1722 
L 984 0 
L 422 0 
z
" transform="scale(0.015625)"/>
       <path id="ArialMT-28" d="M 1497 -1347 
Q 1031 -759 709 28 
Q 388 816 388 1659 
Q 388 2403 628 3084 
Q 909 3875 1497 4659 
L 1900 4659 
Q 1522 4009 1400 3731 
Q 1209 3300 1100 2831 
Q 966 2247 966 1656 
Q 966 153 1900 -1347 
L 1497 -1347 
z
" transform="scale(0.015625)"/>
       <path id="ArialMT-2b" d="M 1603 741 
L 1603 1997 
L 356 1997 
L 356 2522 
L 1603 2522 
L 1603 3769 
L 2134 3769 
L 2134 2522 
L 3381 2522 
L 3381 1997 
L 2134 1997 
L 2134 741 
L 1603 741 
z
" transform="scale(0.015625)"/>
       <path id="ArialMT-29" d="M 791 -1347 
L 388 -1347 
Q 1322 153 1322 1656 
Q 1322 2244 1188 2822 
Q 1081 3291 891 3722 
Q 769 4003 388 4659 
L 791 4659 
Q 1378 3875 1659 3084 
Q 1900 2403 1900 1659 
Q 1900 816 1576 28 
Q 1253 -759 791 -1347 
z
" transform="scale(0.015625)"/>
      </defs>
      <use xlink:href="#ArialMT-54"/>
      <use xlink:href="#ArialMT-6f" transform="translate(49.958984 0)"/>
      <use xlink:href="#ArialMT-77" transform="translate(105.574219 0)"/>
      <use xlink:href="#ArialMT-61" transform="translate(177.791016 0)"/>
      <use xlink:href="#ArialMT-72" transform="translate(233.40625 0)"/>
      <use xlink:href="#ArialMT-64" transform="translate(266.707031 0)"/>
      <use xlink:href="#ArialMT-20" transform="translate(322.322266 0)"/>
      <use xlink:href="#ArialMT-50" transform="translate(350.105469 0)"/>
      <use xlink:href="#ArialMT-72" transform="translate(416.804688 0)"/>
      <use xlink:href="#ArialMT-6f" transform="translate(450.105469 0)"/>
      <use xlink:href="#ArialMT-6d" transform="translate(505.720703 0)"/>
      <use xlink:href="#ArialMT-6f" transform="translate(589.021484 0)"/>
      <use xlink:href="#ArialMT-74" transform="translate(644.636719 0)"/>
      <use xlink:href="#ArialMT-65" transform="translate(672.419922 0)"/>
      <use xlink:href="#ArialMT-72" transform="translate(728.035156 0)"/>
      <use xlink:href="#ArialMT-20" transform="translate(761.335938 0)"/>
      <use xlink:href="#ArialMT-28" transform="translate(789.119141 0)"/>
      <use xlink:href="#ArialMT-2b" transform="translate(822.419922 0)"/>
      <use xlink:href="#ArialMT-29" transform="translate(880.818359 0)"/>
     </g>
    </g>
    <g id="patch_28">
     <path d="M 540.669375 518.964375 
L 562.669375 518.964375 
L 562.669375 511.264375 
L 540.669375 511.264375 
z
" style="fill: #ff5722"/>
    </g>
    <g id="text_29">
     <!-- Toward Non-Promoter (−) -->
     <g style="fill: #262626" transform="translate(571.469375 518.964375) scale(0.11 -0.11)">
      <defs>
       <path id="ArialMT-4e" d="M 488 0 
L 488 4581 
L 1109 4581 
L 3516 984 
L 3516 4581 
L 4097 4581 
L 4097 0 
L 3475 0 
L 1069 3600 
L 1069 0 
L 488 0 
z
" transform="scale(0.015625)"/>
       <path id="ArialMT-2d" d="M 203 1375 
L 203 1941 
L 1931 1941 
L 1931 1375 
L 203 1375 
z
" transform="scale(0.015625)"/>
      </defs>
      <use xlink:href="#ArialMT-54"/>
      <use xlink:href="#ArialMT-6f" transform="translate(49.958984 0)"/>
      <use xlink:href="#ArialMT-77" transform="translate(105.574219 0)"/>
      <use xlink:href="#ArialMT-61" transform="translate(177.791016 0)"/>
      <use xlink:href="#ArialMT-72" transform="translate(233.40625 0)"/>
      <use xlink:href="#ArialMT-64" transform="translate(266.707031 0)"/>
      <use xlink:href="#ArialMT-20" transform="translate(322.322266 0)"/>
      <use xlink:href="#ArialMT-4e" transform="translate(350.105469 0)"/>
      <use xlink:href="#ArialMT-6f" transform="translate(422.322266 0)"/>
      <use xlink:href="#ArialMT-6e" transform="translate(477.9375 0)"/>
      <use xlink:href="#ArialMT-2d" transform="translate(533.552734 0)"/>
      <use xlink:href="#ArialMT-50" transform="translate(566.853516 0)"/>
      <use xlink:href="#ArialMT-72" transform="translate(633.552734 0)"/>
      <use xlink:href="#ArialMT-6f" transform="translate(666.853516 0)"/>
      <use xlink:href="#ArialMT-6d" transform="translate(722.46875 0)"/>
      <use xlink:href="#ArialMT-6f" transform="translate(805.769531 0)"/>
      <use xlink:href="#ArialMT-74" transform="translate(861.384766 0)"/>
      <use xlink:href="#ArialMT-65" transform="translate(889.167969 0)"/>
      <use xlink:href="#ArialMT-72" transform="translate(944.783203 0)"/>
      <use xlink:href="#ArialMT-20" transform="translate(978.083984 0)"/>
      <use xlink:href="#ArialMT-28" transform="translate(1005.867188 0)"/>
      <use xlink:href="#ArialMT-2212" transform="translate(1039.167969 0)"/>
      <use xlink:href="#ArialMT-29" transform="translate(1097.566406 0)"/>
     </g>
    </g>
   </g>
  </g>
 </g>
 <defs>
  <clipPath id="p88cb8e1908">
   <rect x="30.567031" y="24.119531" width="675.19" height="507.06"/>
  </clipPath>
 </defs>
</svg>
