<?xml version="1.0" encoding="utf-8" standalone="no"?>
<!DOCTYPE svg PUBLIC "-//W3C//DTD SVG 1.1//EN"
  "http://www.w3.org/Graphics/SVG/1.1/DTD/svg11.dtd">
<svg xmlns:xlink="http://www.w3.org/1999/xlink" width="566.957911pt" height="494.91375pt" viewBox="0 0 566.957911 494.91375" xmlns="http://www.w3.org/2000/svg" version="1.1">
 <metadata>
  <rdf:RDF xmlns:dc="http://purl.org/dc/elements/1.1/" xmlns:cc="http://creativecommons.org/ns#" xmlns:rdf="http://www.w3.org/1999/02/22-rdf-syntax-ns#">
   <cc:Work>
    <dc:type rdf:resource="http://purl.org/dc/dcmitype/StillImage"/>
    <dc:date>2026-03-25T16:13:28.652201</dc:date>
    <dc:format>image/svg+xml</dc:format>
    <dc:creator>
     <cc:Agent>
      <dc:title>Matplotlib v3.10.8, https://matplotlib.org/</dc:title>
     </cc:Agent>
    </dc:creator>
   </cc:Work>
  </rdf:RDF>
 </metadata>
 <defs>
  <style type="text/css">*{stroke-linejoin: round; stroke-linecap: butt}</style>
 </defs>
 <g id="figure_1">
  <g id="patch_1">
   <path d="M 0 494.91375 
L 566.957911 494.91375 
L 566.957911 0 
L 0 0 
z
" style="fill: #ffffff"/>
  </g>
  <g id="axes_1">
   <g id="patch_2">
    <path d="M 40.488906 459.179531 
L 557.880377 459.179531 
L 557.880377 24.119531 
L 40.488906 24.119531 
z
" style="fill: #ffffff"/>
   </g>
   <g id="matplotlib.axis_1">
    <g id="xtick_1">
     <g id="line2d_1">
      <path d="M 45.561372 459.179531 
L 45.561372 24.119531 
" clip-path="url(#p2974f1f3a4)" style="fill: none; stroke: #cccccc; stroke-opacity: 0.3; stroke-width: 0.8; stroke-linecap: round"/>
     </g>
     <g id="line2d_2"/>
     <g id="text_1">
      <!-- 0.0 -->
      <g style="fill: #262626" transform="translate(38.611372 469.837344) scale(0.1 -0.1)">
       <defs>
        <path id="ArialMT-30" d="M 266 2259 
Q 266 3072 433 3567 
Q 600 4063 929 4331 
Q 1259 4600 1759 4600 
Q 2128 4600 2406 4451 
Q 2684 4303 2865 4023 
Q 3047 3744 3150 3342 
Q 3253 2941 3253 2259 
Q 3253 1453 3087 958 
Q 2922 463 2592 192 
Q 2263 -78 1759 -78 
Q 1097 -78 719 397 
Q 266 969 266 2259 
z
M 844 2259 
Q 844 1131 1108 757 
Q 1372 384 1759 384 
Q 2147 384 2411 759 
Q 2675 1134 2675 2259 
Q 2675 3391 2411 3762 
Q 2147 4134 1753 4134 
Q 1366 4134 1134 3806 
Q 844 3388 844 2259 
z
" transform="scale(0.015625)"/>
        <path id="ArialMT-2e" d="M 581 0 
L 581 641 
L 1222 641 
L 1222 0 
L 581 0 
z
" transform="scale(0.015625)"/>
       </defs>
       <use xlink:href="#ArialMT-30"/>
       <use xlink:href="#ArialMT-2e" transform="translate(55.615234 0)"/>
       <use xlink:href="#ArialMT-30" transform="translate(83.398438 0)"/>
      </g>
     </g>
    </g>
    <g id="xtick_2">
     <g id="line2d_3">
      <path d="M 147.01068 459.179531 
L 147.01068 24.119531 
" clip-path="url(#p2974f1f3a4)" style="fill: none; stroke: #cccccc; stroke-opacity: 0.3; stroke-width: 0.8; stroke-linecap: round"/>
     </g>
     <g id="line2d_4"/>
     <g id="text_2">
      <!-- 0.2 -->
      <g style="fill: #262626" transform="translate(140.06068 469.837344) scale(0.1 -0.1)">
       <defs>
        <path id="ArialMT-32" d="M 3222 541 
L 3222 0 
L 194 0 
Q 188 203 259 391 
Q 375 700 629 1000 
Q 884 1300 1366 1694 
Q 2113 2306 2375 2664 
Q 2638 3022 2638 3341 
Q 2638 3675 2398 3904 
Q 2159 4134 1775 4134 
Q 1369 4134 1125 3890 
Q 881 3647 878 3216 
L 300 3275 
Q 359 3922 746 4261 
Q 1134 4600 1788 4600 
Q 2447 4600 2831 4234 
Q 3216 3869 3216 3328 
Q 3216 3053 3103 2787 
Q 2991 2522 2730 2228 
Q 2469 1934 1863 1422 
Q 1356 997 1212 845 
Q 1069 694 975 541 
L 3222 541 
z
" transform="scale(0.015625)"/>
       </defs>
       <use xlink:href="#ArialMT-30"/>
       <use xlink:href="#ArialMT-2e" transform="translate(55.615234 0)"/>
       <use xlink:href="#ArialMT-32" transform="translate(83.398438 0)"/>
      </g>
     </g>
    </g>
    <g id="xtick_3">
     <g id="line2d_5">
      <path d="M 248.459988 459.179531 
L 248.459988 24.119531 
" clip-path="url(#p2974f1f3a4)" style="fill: none; stroke: #cccccc; stroke-opacity: 0.3; stroke-width: 0.8; stroke-linecap: round"/>
     </g>
     <g id="line2d_6"/>
     <g id="text_3">
      <!-- 0.4 -->
      <g style="fill: #262626" transform="translate(241.509988 469.837344) scale(0.1 -0.1)">
       <defs>
        <path id="ArialMT-34" d="M 2069 0 
L 2069 1097 
L 81 1097 
L 81 1613 
L 2172 4581 
L 2631 4581 
L 2631 1613 
L 3250 1613 
L 3250 1097 
L 2631 1097 
L 2631 0 
L 2069 0 
z
M 2069 1613 
L 2069 3678 
L 634 1613 
L 2069 1613 
z
" transform="scale(0.015625)"/>
       </defs>
       <use xlink:href="#ArialMT-30"/>
       <use xlink:href="#ArialMT-2e" transform="translate(55.615234 0)"/>
       <use xlink:href="#ArialMT-34" transform="translate(83.398438 0)"/>
      </g>
     </g>
    </g>
    <g id="xtick_4">
     <g id="line2d_7">
      <path d="M 349.909296 459.179531 
L 349.909296 24.119531 
" clip-path="url(#p2974f1f3a4)" style="fill: none; stroke: #cccccc; stroke-opacity: 0.3; stroke-width: 0.8; stroke-linecap: round"/>
     </g>
     <g id="line2d_8"/>
     <g id="text_4">
      <!-- 0.6 -->
      <g style="fill: #262626" transform="translate(342.959296 469.837344) scale(0.1 -0.1)">
       <defs>
        <path id="ArialMT-36" d="M 3184 3459 
L 2625 3416 
Q 2550 3747 2413 3897 
Q 2184 4138 1850 4138 
Q 1581 4138 1378 3988 
Q 1113 3794 959 3422 
Q 806 3050 800 2363 
Q 1003 2672 1297 2822 
Q 1591 2972 1913 2972 
Q 2475 2972 2870 2558 
Q 3266 2144 3266 1488 
Q 3266 1056 3080 686 
Q 2894 316 2569 119 
Q 2244 -78 1831 -78 
Q 1128 -78 684 439 
Q 241 956 241 2144 
Q 241 3472 731 4075 
Q 1159 4600 1884 4600 
Q 2425 4600 2770 4297 
Q 3116 3994 3184 3459 
z
M 888 1484 
Q 888 1194 1011 928 
Q 1134 663 1356 523 
Q 1578 384 1822 384 
Q 2178 384 2434 671 
Q 2691 959 2691 1453 
Q 2691 1928 2437 2201 
Q 2184 2475 1800 2475 
Q 1419 2475 1153 2201 
Q 888 1928 888 1484 
z
" transform="scale(0.015625)"/>
       </defs>
       <use xlink:href="#ArialMT-30"/>
       <use xlink:href="#ArialMT-2e" transform="translate(55.615234 0)"/>
       <use xlink:href="#ArialMT-36" transform="translate(83.398438 0)"/>
      </g>
     </g>
    </g>
    <g id="xtick_5">
     <g id="line2d_9">
      <path d="M 451.358603 459.179531 
L 451.358603 24.119531 
" clip-path="url(#p2974f1f3a4)" style="fill: none; stroke: #cccccc; stroke-opacity: 0.3; stroke-width: 0.8; stroke-linecap: round"/>
     </g>
     <g id="line2d_10"/>
     <g id="text_5">
      <!-- 0.8 -->
      <g style="fill: #262626" transform="translate(444.408603 469.837344) scale(0.1 -0.1)">
       <defs>
        <path id="ArialMT-38" d="M 1131 2484 
Q 781 2613 612 2850 
Q 444 3088 444 3419 
Q 444 3919 803 4259 
Q 1163 4600 1759 4600 
Q 2359 4600 2725 4251 
Q 3091 3903 3091 3403 
Q 3091 3084 2923 2848 
Q 2756 2613 2416 2484 
Q 2838 2347 3058 2040 
Q 3278 1734 3278 1309 
Q 3278 722 2862 322 
Q 2447 -78 1769 -78 
Q 1091 -78 675 323 
Q 259 725 259 1325 
Q 259 1772 486 2073 
Q 713 2375 1131 2484 
z
M 1019 3438 
Q 1019 3113 1228 2906 
Q 1438 2700 1772 2700 
Q 2097 2700 2305 2904 
Q 2513 3109 2513 3406 
Q 2513 3716 2298 3927 
Q 2084 4138 1766 4138 
Q 1444 4138 1231 3931 
Q 1019 3725 1019 3438 
z
M 838 1322 
Q 838 1081 952 856 
Q 1066 631 1291 507 
Q 1516 384 1775 384 
Q 2178 384 2440 643 
Q 2703 903 2703 1303 
Q 2703 1709 2433 1975 
Q 2163 2241 1756 2241 
Q 1359 2241 1098 1978 
Q 838 1716 838 1322 
z
" transform="scale(0.015625)"/>
       </defs>
       <use xlink:href="#ArialMT-30"/>
       <use xlink:href="#ArialMT-2e" transform="translate(55.615234 0)"/>
       <use xlink:href="#ArialMT-38" transform="translate(83.398438 0)"/>
      </g>
     </g>
    </g>
    <g id="xtick_6">
     <g id="line2d_11">
      <path d="M 552.807911 459.179531 
L 552.807911 24.119531 
" clip-path="url(#p2974f1f3a4)" style="fill: none; stroke: #cccccc; stroke-opacity: 0.3; stroke-width: 0.8; stroke-linecap: round"/>
     </g>
     <g id="line2d_12"/>
     <g id="text_6">
      <!-- 1.0 -->
      <g style="fill: #262626" transform="translate(545.857911 469.837344) scale(0.1 -0.1)">
       <defs>
        <path id="ArialMT-31" d="M 2384 0 
L 1822 0 
L 1822 3584 
Q 1619 3391 1289 3197 
Q 959 3003 697 2906 
L 697 3450 
Q 1169 3672 1522 3987 
Q 1875 4303 2022 4600 
L 2384 4600 
L 2384 0 
z
" transform="scale(0.015625)"/>
       </defs>
       <use xlink:href="#ArialMT-31"/>
       <use xlink:href="#ArialMT-2e" transform="translate(55.615234 0)"/>
       <use xlink:href="#ArialMT-30" transform="translate(83.398438 0)"/>
      </g>
     </g>
    </g>
    <g id="text_7">
     <!-- False Positive Rate -->
     <g style="fill: #262626" transform="translate(243.191204 485.13) scale(0.13 -0.13)">
      <defs>
       <path id="ArialMT-46" d="M 525 0 
L 525 4581 
L 3616 4581 
L 3616 4041 
L 1131 4041 
L 1131 2622 
L 3281 2622 
L 3281 2081 
L 1131 2081 
L 1131 0 
L 525 0 
z
" transform="scale(0.015625)"/>
       <path id="ArialMT-61" d="M 2588 409 
Q 2275 144 1986 34 
Q 1697 -75 1366 -75 
Q 819 -75 525 192 
Q 231 459 231 875 
Q 231 1119 342 1320 
Q 453 1522 633 1644 
Q 813 1766 1038 1828 
Q 1203 1872 1538 1913 
Q 2219 1994 2541 2106 
Q 2544 2222 2544 2253 
Q 2544 2597 2384 2738 
Q 2169 2928 1744 2928 
Q 1347 2928 1158 2789 
Q 969 2650 878 2297 
L 328 2372 
Q 403 2725 575 2942 
Q 747 3159 1072 3276 
Q 1397 3394 1825 3394 
Q 2250 3394 2515 3294 
Q 2781 3194 2906 3042 
Q 3031 2891 3081 2659 
Q 3109 2516 3109 2141 
L 3109 1391 
Q 3109 606 3145 398 
Q 3181 191 3288 0 
L 2700 0 
Q 2613 175 2588 409 
z
M 2541 1666 
Q 2234 1541 1622 1453 
Q 1275 1403 1131 1340 
Q 988 1278 909 1158 
Q 831 1038 831 891 
Q 831 666 1001 516 
Q 1172 366 1500 366 
Q 1825 366 2078 508 
Q 2331 650 2450 897 
Q 2541 1088 2541 1459 
L 2541 1666 
z
" transform="scale(0.015625)"/>
       <path id="ArialMT-6c" d="M 409 0 
L 409 4581 
L 972 4581 
L 972 0 
L 409 0 
z
" transform="scale(0.015625)"/>
       <path id="ArialMT-73" d="M 197 991 
L 753 1078 
Q 800 744 1014 566 
Q 1228 388 1613 388 
Q 2000 388 2187 545 
Q 2375 703 2375 916 
Q 2375 1106 2209 1216 
Q 2094 1291 1634 1406 
Q 1016 1563 777 1677 
Q 538 1791 414 1992 
Q 291 2194 291 2438 
Q 291 2659 392 2848 
Q 494 3038 669 3163 
Q 800 3259 1026 3326 
Q 1253 3394 1513 3394 
Q 1903 3394 2198 3281 
Q 2494 3169 2634 2976 
Q 2775 2784 2828 2463 
L 2278 2388 
Q 2241 2644 2061 2787 
Q 1881 2931 1553 2931 
Q 1166 2931 1000 2803 
Q 834 2675 834 2503 
Q 834 2394 903 2306 
Q 972 2216 1119 2156 
Q 1203 2125 1616 2013 
Q 2213 1853 2448 1751 
Q 2684 1650 2818 1456 
Q 2953 1263 2953 975 
Q 2953 694 2789 445 
Q 2625 197 2315 61 
Q 2006 -75 1616 -75 
Q 969 -75 630 194 
Q 291 463 197 991 
z
" transform="scale(0.015625)"/>
       <path id="ArialMT-65" d="M 2694 1069 
L 3275 997 
Q 3138 488 2766 206 
Q 2394 -75 1816 -75 
Q 1088 -75 661 373 
Q 234 822 234 1631 
Q 234 2469 665 2931 
Q 1097 3394 1784 3394 
Q 2450 3394 2872 2941 
Q 3294 2488 3294 1666 
Q 3294 1616 3291 1516 
L 816 1516 
Q 847 969 1125 678 
Q 1403 388 1819 388 
Q 2128 388 2347 550 
Q 2566 713 2694 1069 
z
M 847 1978 
L 2700 1978 
Q 2663 2397 2488 2606 
Q 2219 2931 1791 2931 
Q 1403 2931 1139 2672 
Q 875 2413 847 1978 
z
" transform="scale(0.015625)"/>
       <path id="ArialMT-20" transform="scale(0.015625)"/>
       <path id="ArialMT-50" d="M 494 0 
L 494 4581 
L 2222 4581 
Q 2678 4581 2919 4538 
Q 3256 4481 3484 4323 
Q 3713 4166 3852 3881 
Q 3991 3597 3991 3256 
Q 3991 2672 3619 2267 
Q 3247 1863 2275 1863 
L 1100 1863 
L 1100 0 
L 494 0 
z
M 1100 2403 
L 2284 2403 
Q 2872 2403 3119 2622 
Q 3366 2841 3366 3238 
Q 3366 3525 3220 3729 
Q 3075 3934 2838 4000 
Q 2684 4041 2272 4041 
L 1100 4041 
L 1100 2403 
z
" transform="scale(0.015625)"/>
       <path id="ArialMT-6f" d="M 213 1659 
Q 213 2581 725 3025 
Q 1153 3394 1769 3394 
Q 2453 3394 2887 2945 
Q 3322 2497 3322 1706 
Q 3322 1066 3130 698 
Q 2938 331 2570 128 
Q 2203 -75 1769 -75 
Q 1072 -75 642 372 
Q 213 819 213 1659 
z
M 791 1659 
Q 791 1022 1069 705 
Q 1347 388 1769 388 
Q 2188 388 2466 706 
Q 2744 1025 2744 1678 
Q 2744 2294 2464 2611 
Q 2184 2928 1769 2928 
Q 1347 2928 1069 2612 
Q 791 2297 791 1659 
z
" transform="scale(0.015625)"/>
       <path id="ArialMT-69" d="M 425 3934 
L 425 4581 
L 988 4581 
L 988 3934 
L 425 3934 
z
M 425 0 
L 425 3319 
L 988 3319 
L 988 0 
L 425 0 
z
" transform="scale(0.015625)"/>
       <path id="ArialMT-74" d="M 1650 503 
L 1731 6 
Q 1494 -44 1306 -44 
Q 1000 -44 831 53 
Q 663 150 594 308 
Q 525 466 525 972 
L 525 2881 
L 113 2881 
L 113 3319 
L 525 3319 
L 525 4141 
L 1084 4478 
L 1084 3319 
L 1650 3319 
L 1650 2881 
L 1084 2881 
L 1084 941 
Q 1084 700 1114 631 
Q 1144 563 1211 522 
Q 1278 481 1403 481 
Q 1497 481 1650 503 
z
" transform="scale(0.015625)"/>
       <path id="ArialMT-76" d="M 1344 0 
L 81 3319 
L 675 3319 
L 1388 1331 
Q 1503 1009 1600 663 
Q 1675 925 1809 1294 
L 2547 3319 
L 3125 3319 
L 1869 0 
L 1344 0 
z
" transform="scale(0.015625)"/>
       <path id="ArialMT-52" d="M 503 0 
L 503 4581 
L 2534 4581 
Q 3147 4581 3465 4457 
Q 3784 4334 3975 4021 
Q 4166 3709 4166 3331 
Q 4166 2844 3850 2509 
Q 3534 2175 2875 2084 
Q 3116 1969 3241 1856 
Q 3506 1613 3744 1247 
L 4541 0 
L 3778 0 
L 3172 953 
Q 2906 1366 2734 1584 
Q 2563 1803 2427 1890 
Q 2291 1978 2150 2013 
Q 2047 2034 1813 2034 
L 1109 2034 
L 1109 0 
L 503 0 
z
M 1109 2559 
L 2413 2559 
Q 2828 2559 3062 2645 
Q 3297 2731 3419 2920 
Q 3541 3109 3541 3331 
Q 3541 3656 3305 3865 
Q 3069 4075 2559 4075 
L 1109 4075 
L 1109 2559 
z
" transform="scale(0.015625)"/>
      </defs>
      <use xlink:href="#ArialMT-46"/>
      <use xlink:href="#ArialMT-61" transform="translate(61.083984 0)"/>
      <use xlink:href="#ArialMT-6c" transform="translate(116.699219 0)"/>
      <use xlink:href="#ArialMT-73" transform="translate(138.916016 0)"/>
      <use xlink:href="#ArialMT-65" transform="translate(188.916016 0)"/>
      <use xlink:href="#ArialMT-20" transform="translate(244.53125 0)"/>
      <use xlink:href="#ArialMT-50" transform="translate(272.314453 0)"/>
      <use xlink:href="#ArialMT-6f" transform="translate(339.013672 0)"/>
      <use xlink:href="#ArialMT-73" transform="translate(394.628906 0)"/>
      <use xlink:href="#ArialMT-69" transform="translate(444.628906 0)"/>
      <use xlink:href="#ArialMT-74" transform="translate(466.845703 0)"/>
      <use xlink:href="#ArialMT-69" transform="translate(494.628906 0)"/>
      <use xlink:href="#ArialMT-76" transform="translate(516.845703 0)"/>
      <use xlink:href="#ArialMT-65" transform="translate(566.845703 0)"/>
      <use xlink:href="#ArialMT-20" transform="translate(622.460938 0)"/>
      <use xlink:href="#ArialMT-52" transform="translate(650.244141 0)"/>
      <use xlink:href="#ArialMT-61" transform="translate(722.460938 0)"/>
      <use xlink:href="#ArialMT-74" transform="translate(778.076172 0)"/>
      <use xlink:href="#ArialMT-65" transform="translate(805.859375 0)"/>
     </g>
    </g>
   </g>
   <g id="matplotlib.axis_2">
    <g id="ytick_1">
     <g id="line2d_13">
      <path d="M 40.488906 454.914237 
L 557.880377 454.914237 
" clip-path="url(#p2974f1f3a4)" style="fill: none; stroke: #cccccc; stroke-opacity: 0.3; stroke-width: 0.8; stroke-linecap: round"/>
     </g>
     <g id="line2d_14"/>
     <g id="text_8">
      <!-- 0.0 -->
      <g style="fill: #262626" transform="translate(23.088906 458.493143) scale(0.1 -0.1)">
       <use xlink:href="#ArialMT-30"/>
       <use xlink:href="#ArialMT-2e" transform="translate(55.615234 0)"/>
       <use xlink:href="#ArialMT-30" transform="translate(83.398438 0)"/>
      </g>
     </g>
    </g>
    <g id="ytick_2">
     <g id="line2d_15">
      <path d="M 40.488906 369.608355 
L 557.880377 369.608355 
" clip-path="url(#p2974f1f3a4)" style="fill: none; stroke: #cccccc; stroke-opacity: 0.3; stroke-width: 0.8; stroke-linecap: round"/>
     </g>
     <g id="line2d_16"/>
     <g id="text_9">
      <!-- 0.2 -->
      <g style="fill: #262626" transform="translate(23.088906 373.187261) scale(0.1 -0.1)">
       <use xlink:href="#ArialMT-30"/>
       <use xlink:href="#ArialMT-2e" transform="translate(55.615234 0)"/>
       <use xlink:href="#ArialMT-32" transform="translate(83.398438 0)"/>
      </g>
     </g>
    </g>
    <g id="ytick_3">
     <g id="line2d_17">
      <path d="M 40.488906 284.302472 
L 557.880377 284.302472 
" clip-path="url(#p2974f1f3a4)" style="fill: none; stroke: #cccccc; stroke-opacity: 0.3; stroke-width: 0.8; stroke-linecap: round"/>
     </g>
     <g id="line2d_18"/>
     <g id="text_10">
      <!-- 0.4 -->
      <g style="fill: #262626" transform="translate(23.088906 287.881379) scale(0.1 -0.1)">
       <use xlink:href="#ArialMT-30"/>
       <use xlink:href="#ArialMT-2e" transform="translate(55.615234 0)"/>
       <use xlink:href="#ArialMT-34" transform="translate(83.398438 0)"/>
      </g>
     </g>
    </g>
    <g id="ytick_4">
     <g id="line2d_19">
      <path d="M 40.488906 198.99659 
L 557.880377 198.99659 
" clip-path="url(#p2974f1f3a4)" style="fill: none; stroke: #cccccc; stroke-opacity: 0.3; stroke-width: 0.8; stroke-linecap: round"/>
     </g>
     <g id="line2d_20"/>
     <g id="text_11">
      <!-- 0.6 -->
      <g style="fill: #262626" transform="translate(23.088906 202.575496) scale(0.1 -0.1)">
       <use xlink:href="#ArialMT-30"/>
       <use xlink:href="#ArialMT-2e" transform="translate(55.615234 0)"/>
       <use xlink:href="#ArialMT-36" transform="translate(83.398438 0)"/>
      </g>
     </g>
    </g>
    <g id="ytick_5">
     <g id="line2d_21">
      <path d="M 40.488906 113.690708 
L 557.880377 113.690708 
" clip-path="url(#p2974f1f3a4)" style="fill: none; stroke: #cccccc; stroke-opacity: 0.3; stroke-width: 0.8; stroke-linecap: round"/>
     </g>
     <g id="line2d_22"/>
     <g id="text_12">
      <!-- 0.8 -->
      <g style="fill: #262626" transform="translate(23.088906 117.269614) scale(0.1 -0.1)">
       <use xlink:href="#ArialMT-30"/>
       <use xlink:href="#ArialMT-2e" transform="translate(55.615234 0)"/>
       <use xlink:href="#ArialMT-38" transform="translate(83.398438 0)"/>
      </g>
     </g>
    </g>
    <g id="ytick_6">
     <g id="line2d_23">
      <path d="M 40.488906 28.384825 
L 557.880377 28.384825 
" clip-path="url(#p2974f1f3a4)" style="fill: none; stroke: #cccccc; stroke-opacity: 0.3; stroke-width: 0.8; stroke-linecap: round"/>
     </g>
     <g id="line2d_24"/>
     <g id="text_13">
      <!-- 1.0 -->
      <g style="fill: #262626" transform="translate(23.088906 31.963732) scale(0.1 -0.1)">
       <use xlink:href="#ArialMT-31"/>
       <use xlink:href="#ArialMT-2e" transform="translate(55.615234 0)"/>
       <use xlink:href="#ArialMT-30" transform="translate(83.398438 0)"/>
      </g>
     </g>
    </g>
    <g id="text_14">
     <!-- True Positive Rate -->
     <g style="fill: #262626" transform="translate(16.505156 294.869297) rotate(-90) scale(0.13 -0.13)">
      <defs>
       <path id="ArialMT-54" d="M 1659 0 
L 1659 4041 
L 150 4041 
L 150 4581 
L 3781 4581 
L 3781 4041 
L 2266 4041 
L 2266 0 
L 1659 0 
z
" transform="scale(0.015625)"/>
       <path id="ArialMT-72" d="M 416 0 
L 416 3319 
L 922 3319 
L 922 2816 
Q 1116 3169 1280 3281 
Q 1444 3394 1641 3394 
Q 1925 3394 2219 3213 
L 2025 2691 
Q 1819 2813 1613 2813 
Q 1428 2813 1281 2702 
Q 1134 2591 1072 2394 
Q 978 2094 978 1738 
L 978 0 
L 416 0 
z
" transform="scale(0.015625)"/>
       <path id="ArialMT-75" d="M 2597 0 
L 2597 488 
Q 2209 -75 1544 -75 
Q 1250 -75 995 37 
Q 741 150 617 320 
Q 494 491 444 738 
Q 409 903 409 1263 
L 409 3319 
L 972 3319 
L 972 1478 
Q 972 1038 1006 884 
Q 1059 663 1231 536 
Q 1403 409 1656 409 
Q 1909 409 2131 539 
Q 2353 669 2445 892 
Q 2538 1116 2538 1541 
L 2538 3319 
L 3100 3319 
L 3100 0 
L 2597 0 
z
" transform="scale(0.015625)"/>
      </defs>
      <use xlink:href="#ArialMT-54"/>
      <use xlink:href="#ArialMT-72" transform="translate(57.333984 0)"/>
      <use xlink:href="#ArialMT-75" transform="translate(90.634766 0)"/>
      <use xlink:href="#ArialMT-65" transform="translate(146.25 0)"/>
      <use xlink:href="#ArialMT-20" transform="translate(201.865234 0)"/>
      <use xlink:href="#ArialMT-50" transform="translate(229.648438 0)"/>
      <use xlink:href="#ArialMT-6f" transform="translate(296.347656 0)"/>
      <use xlink:href="#ArialMT-73" transform="translate(351.962891 0)"/>
      <use xlink:href="#ArialMT-69" transform="translate(401.962891 0)"/>
      <use xlink:href="#ArialMT-74" transform="translate(424.179688 0)"/>
      <use xlink:href="#ArialMT-69" transform="translate(451.962891 0)"/>
      <use xlink:href="#ArialMT-76" transform="translate(474.179688 0)"/>
      <use xlink:href="#ArialMT-65" transform="translate(524.179688 0)"/>
      <use xlink:href="#ArialMT-20" transform="translate(579.794922 0)"/>
      <use xlink:href="#ArialMT-52" transform="translate(607.578125 0)"/>
      <use xlink:href="#ArialMT-61" transform="translate(679.794922 0)"/>
      <use xlink:href="#ArialMT-74" transform="translate(735.410156 0)"/>
      <use xlink:href="#ArialMT-65" transform="translate(763.193359 0)"/>
     </g>
    </g>
   </g>
   <g id="line2d_25">
    <path d="M 45.561372 454.914237 
L 45.561372 275.281978 
L 45.715503 275.281978 
L 45.715503 144.899545 
L 45.869635 144.899545 
L 45.869635 141.141005 
L 46.023766 141.141005 
L 46.023766 135.697604 
L 46.177897 135.697604 
L 46.177897 133.623927 
L 46.332029 133.623927 
L 46.332029 127.143686 
L 46.48616 127.143686 
L 46.48616 125.199614 
L 46.640292 125.199614 
L 46.640292 123.903566 
L 46.794423 123.903566 
L 46.794423 121.700285 
L 46.948555 121.700285 
L 46.948555 111.3319 
L 47.102686 111.3319 
L 47.102686 101.61154 
L 47.256817 101.61154 
L 47.256817 96.556953 
L 47.410949 96.556953 
L 47.410949 94.87209 
L 47.56508 94.87209 
L 47.56508 92.928018 
L 47.719212 92.928018 
L 47.719212 92.539204 
L 47.873343 92.539204 
L 47.873343 91.89118 
L 48.027475 91.89118 
L 48.027475 90.206317 
L 48.181606 90.206317 
L 48.181606 89.428688 
L 48.335737 89.428688 
L 48.335737 88.521455 
L 48.489869 88.521455 
L 48.489869 86.706987 
L 48.644 86.706987 
L 48.644 85.670149 
L 48.798132 85.670149 
L 48.798132 85.540544 
L 48.952263 85.540544 
L 48.952263 84.762915 
L 49.106395 84.762915 
L 49.106395 80.874771 
L 49.260526 80.874771 
L 49.260526 80.485957 
L 49.414657 80.485957 
L 49.414657 78.023466 
L 49.568789 78.023466 
L 49.568789 77.245837 
L 49.877052 77.245837 
L 49.877052 75.949789 
L 50.031183 75.949789 
L 50.031183 74.653741 
L 50.185315 74.653741 
L 50.185315 73.746507 
L 50.339446 73.746507 
L 50.339446 72.320854 
L 50.647709 72.320854 
L 50.647709 72.191249 
L 50.80184 72.191249 
L 50.80184 71.024806 
L 50.955972 71.024806 
L 50.955972 70.376782 
L 51.110103 70.376782 
L 51.110103 68.562315 
L 51.418366 68.562315 
L 51.418366 66.488638 
L 51.572497 66.488638 
L 51.572497 66.099823 
L 51.726629 66.099823 
L 51.726629 65.970219 
L 51.88076 65.970219 
L 51.88076 65.711009 
L 52.034892 65.711009 
L 52.034892 65.451799 
L 52.189023 65.451799 
L 52.189023 65.062985 
L 52.343155 65.062985 
L 52.343155 64.285356 
L 52.651417 64.285356 
L 52.651417 63.896542 
L 52.95968 63.896542 
L 52.95968 62.989308 
L 53.113812 62.989308 
L 53.113812 62.470889 
L 53.267943 62.470889 
L 53.267943 62.341284 
L 53.576206 62.341284 
L 53.576206 61.95247 
L 53.730337 61.95247 
L 53.730337 60.397212 
L 54.500995 60.397212 
L 54.500995 59.878793 
L 54.655126 59.878793 
L 54.655126 59.619583 
L 54.809258 59.619583 
L 54.809258 59.360374 
L 55.11752 59.360374 
L 55.11752 58.971559 
L 55.271652 58.971559 
L 55.271652 58.841954 
L 55.425783 58.841954 
L 55.425783 58.582745 
L 55.888178 58.582745 
L 55.888178 58.323535 
L 56.042309 58.323535 
L 56.042309 58.064326 
L 56.19644 58.064326 
L 56.19644 57.805116 
L 56.350572 57.805116 
L 56.350572 57.675511 
L 56.504703 57.675511 
L 56.504703 57.286697 
L 56.812966 57.286697 
L 56.812966 57.157092 
L 57.121229 57.157092 
L 57.121229 56.379463 
L 57.583623 56.379463 
L 57.583623 55.731439 
L 58.046018 55.731439 
L 58.046018 55.21302 
L 58.35428 55.21302 
L 58.35428 54.824205 
L 58.662543 54.824205 
L 58.662543 54.305786 
L 58.816675 54.305786 
L 58.816675 53.787367 
L 58.970806 53.787367 
L 58.970806 53.268948 
L 59.124938 53.268948 
L 59.124938 53.009738 
L 59.279069 53.009738 
L 59.279069 52.880133 
L 59.4332 52.880133 
L 59.4332 52.491319 
L 59.895595 52.491319 
L 59.895595 51.9729 
L 60.203858 51.9729 
L 60.203858 51.454481 
L 60.357989 51.454481 
L 60.357989 51.324876 
L 61.128646 51.324876 
L 61.128646 51.065666 
L 61.59104 51.065666 
L 61.59104 50.936061 
L 61.899303 50.936061 
L 61.899303 50.417642 
L 62.053435 50.417642 
L 62.053435 50.158433 
L 62.361698 50.158433 
L 62.361698 49.640013 
L 62.515829 49.640013 
L 62.515829 49.510409 
L 62.978223 49.510409 
L 62.978223 49.251199 
L 63.440618 49.251199 
L 63.440618 49.121594 
L 63.748881 49.121594 
L 63.748881 48.991989 
L 63.903012 48.991989 
L 63.903012 48.862384 
L 64.211275 48.862384 
L 64.211275 48.73278 
L 64.365406 48.73278 
L 64.365406 48.21436 
L 64.519538 48.21436 
L 64.519538 48.084756 
L 64.673669 48.084756 
L 64.673669 47.955151 
L 65.136063 47.955151 
L 65.136063 47.695941 
L 65.290195 47.695941 
L 65.290195 47.307127 
L 65.444326 47.307127 
L 65.444326 46.918312 
L 65.598458 46.918312 
L 65.598458 46.659103 
L 65.752589 46.659103 
L 65.752589 46.529498 
L 66.060852 46.529498 
L 66.060852 46.399893 
L 66.214983 46.399893 
L 66.214983 46.270288 
L 66.369115 46.270288 
L 66.369115 45.751869 
L 66.523246 45.751869 
L 66.523246 45.49266 
L 66.985641 45.49266 
L 66.985641 45.23345 
L 67.139772 45.23345 
L 67.139772 44.844636 
L 67.910429 44.844636 
L 67.910429 44.715031 
L 68.218692 44.715031 
L 68.218692 44.585426 
L 68.372823 44.585426 
L 68.372823 44.326216 
L 68.526955 44.326216 
L 68.526955 44.196612 
L 68.681086 44.196612 
L 68.681086 44.067007 
L 69.451743 44.067007 
L 69.451743 43.937402 
L 70.068269 43.937402 
L 70.068269 43.678192 
L 70.376532 43.678192 
L 70.376532 43.030168 
L 70.530663 43.030168 
L 70.530663 42.900563 
L 72.071978 42.900563 
L 72.071978 42.770959 
L 72.226109 42.770959 
L 72.226109 42.641354 
L 72.380241 42.641354 
L 72.380241 42.252539 
L 72.842635 42.252539 
L 72.842635 42.122935 
L 73.459161 42.122935 
L 73.459161 41.99333 
L 73.767424 41.99333 
L 73.767424 41.863725 
L 75.154606 41.863725 
L 75.154606 41.73412 
L 75.308738 41.73412 
L 75.308738 41.215701 
L 75.462869 41.215701 
L 75.462869 41.086096 
L 75.771132 41.086096 
L 75.771132 40.826887 
L 76.387658 40.826887 
L 76.387658 40.697282 
L 77.004184 40.697282 
L 77.004184 40.567677 
L 77.466578 40.567677 
L 77.466578 40.438072 
L 77.620709 40.438072 
L 77.620709 40.308467 
L 77.774841 40.308467 
L 77.774841 39.919653 
L 78.545498 39.919653 
L 78.545498 39.790048 
L 78.699629 39.790048 
L 78.699629 39.401234 
L 78.853761 39.401234 
L 78.853761 39.271629 
L 80.857469 39.271629 
L 80.857469 39.142024 
L 81.473995 39.142024 
L 81.473995 38.882815 
L 82.552915 38.882815 
L 82.552915 38.75321 
L 82.861178 38.75321 
L 82.861178 38.623605 
L 84.864887 38.623605 
L 84.864887 38.494 
L 85.019018 38.494 
L 85.019018 37.975581 
L 87.176858 37.975581 
L 87.176858 37.845976 
L 87.639252 37.845976 
L 87.639252 37.716371 
L 88.101647 37.716371 
L 88.101647 37.586766 
L 88.409909 37.586766 
L 88.409909 37.457162 
L 89.797092 37.457162 
L 89.797092 37.327557 
L 90.56775 37.327557 
L 90.56775 37.197952 
L 91.184275 37.197952 
L 91.184275 37.068347 
L 91.64667 37.068347 
L 91.64667 36.938742 
L 91.954932 36.938742 
L 91.954932 36.809138 
L 93.033852 36.809138 
L 93.033852 36.679533 
L 93.496247 36.679533 
L 93.496247 36.420323 
L 94.575167 36.420323 
L 94.575167 36.161114 
L 94.729298 36.161114 
L 94.729298 36.031509 
L 94.88343 36.031509 
L 94.88343 35.772299 
L 96.116481 35.772299 
L 96.116481 35.642694 
L 96.270612 35.642694 
L 96.270612 35.51309 
L 96.424744 35.51309 
L 96.424744 35.383485 
L 98.12019 35.383485 
L 98.12019 35.25388 
L 99.661504 35.25388 
L 99.661504 35.124275 
L 99.969767 35.124275 
L 99.969767 34.735461 
L 104.59371 34.735461 
L 104.59371 34.605856 
L 105.67263 34.605856 
L 105.67263 34.476251 
L 106.289156 34.476251 
L 106.289156 34.346646 
L 106.597418 34.346646 
L 106.597418 34.217042 
L 107.522207 34.217042 
L 107.522207 34.087437 
L 108.90939 34.087437 
L 108.90939 33.957832 
L 111.837887 33.957832 
L 111.837887 33.828227 
L 113.841596 33.828227 
L 113.841596 33.698622 
L 117.54075 33.698622 
L 117.54075 33.569018 
L 119.082064 33.569018 
L 119.082064 33.439413 
L 124.476664 33.439413 
L 124.476664 33.309808 
L 125.247322 33.309808 
L 125.247322 33.180203 
L 131.56671 33.180203 
L 131.56671 33.050598 
L 133.416287 33.050598 
L 133.416287 32.920994 
L 140.968728 32.920994 
L 140.968728 32.661784 
L 146.979853 32.661784 
L 146.979853 32.532179 
L 147.133985 32.532179 
L 147.133985 32.402574 
L 148.058773 32.402574 
L 148.058773 32.27297 
L 149.137693 32.27297 
L 149.137693 32.143365 
L 150.987271 32.143365 
L 150.987271 32.01376 
L 151.295533 32.01376 
L 151.295533 31.884155 
L 151.603796 31.884155 
L 151.603796 31.75455 
L 152.990979 31.75455 
L 152.990979 31.624945 
L 154.224031 31.624945 
L 154.224031 31.495341 
L 154.378162 31.495341 
L 154.378162 31.365736 
L 154.686425 31.365736 
L 154.686425 31.236131 
L 155.457082 31.236131 
L 155.457082 31.106526 
L 157.769053 31.106526 
L 157.769053 30.976921 
L 159.926894 30.976921 
L 159.926894 30.847317 
L 160.235156 30.847317 
L 160.235156 30.717712 
L 162.238865 30.717712 
L 162.238865 30.588107 
L 163.163654 30.588107 
L 163.163654 30.458502 
L 168.404122 30.458502 
L 168.404122 30.328897 
L 168.712385 30.328897 
L 168.712385 30.199293 
L 173.490459 30.199293 
L 173.490459 30.069688 
L 184.125528 30.069688 
L 184.125528 29.940083 
L 191.523837 29.940083 
L 191.523837 29.810478 
L 202.004774 29.810478 
L 202.004774 29.680873 
L 205.703929 29.680873 
L 205.703929 29.551269 
L 228.052986 29.551269 
L 228.052986 29.421664 
L 233.293455 29.421664 
L 233.293455 29.292059 
L 241.000026 29.292059 
L 241.000026 29.162454 
L 248.244204 29.162454 
L 248.244204 29.032849 
L 271.826313 29.032849 
L 271.826313 28.903245 
L 273.213495 28.903245 
L 273.213495 28.77364 
L 274.292415 28.77364 
L 274.292415 28.644035 
L 295.870816 28.644035 
L 295.870816 28.51443 
L 390.815777 28.51443 
L 390.815777 28.384825 
L 552.807911 28.384825 
L 552.807911 28.384825 
" clip-path="url(#p2974f1f3a4)" style="fill: none; stroke: #2196f3; stroke-width: 2.5; stroke-linecap: round"/>
   </g>
   <g id="line2d_26">
    <path d="M 45.561372 454.914237 
L 45.561372 173.931021 
L 45.715503 173.931021 
L 45.715503 114.57202 
L 45.869635 114.57202 
L 45.869635 104.722055 
L 46.023766 104.722055 
L 46.023766 96.038533 
L 46.177897 96.038533 
L 46.177897 85.410939 
L 46.332029 85.410939 
L 46.332029 78.15307 
L 46.48616 78.15307 
L 46.48616 75.690579 
L 46.640292 75.690579 
L 46.640292 74.135321 
L 46.794423 74.135321 
L 46.794423 72.061645 
L 46.948555 72.061645 
L 46.948555 71.67283 
L 47.102686 71.67283 
L 47.102686 67.525476 
L 47.256817 67.525476 
L 47.256817 63.896542 
L 47.410949 63.896542 
L 47.410949 63.637332 
L 47.56508 63.637332 
L 47.56508 61.95247 
L 47.719212 61.95247 
L 47.719212 61.563655 
L 47.873343 61.563655 
L 47.873343 61.434051 
L 48.027475 61.434051 
L 48.027475 59.360374 
L 48.181606 59.360374 
L 48.181606 58.971559 
L 48.335737 58.971559 
L 48.335737 58.841954 
L 48.489869 58.841954 
L 48.489869 58.45314 
L 48.644 58.45314 
L 48.644 57.416302 
L 48.798132 57.416302 
L 48.798132 56.509068 
L 48.952263 56.509068 
L 48.952263 53.139343 
L 49.260526 53.139343 
L 49.260526 52.491319 
L 49.414657 52.491319 
L 49.414657 52.102505 
L 49.568789 52.102505 
L 49.568789 51.843295 
L 49.72292 51.843295 
L 49.72292 51.71369 
L 49.877052 51.71369 
L 49.877052 51.324876 
L 50.185315 51.324876 
L 50.185315 50.547247 
L 50.647709 50.547247 
L 50.647709 50.288037 
L 50.80184 50.288037 
L 50.80184 48.862384 
L 50.955972 48.862384 
L 50.955972 47.955151 
L 51.110103 47.955151 
L 51.110103 47.695941 
L 51.572497 47.695941 
L 51.572497 47.177522 
L 51.726629 47.177522 
L 51.726629 47.047917 
L 52.034892 47.047917 
L 52.034892 46.918312 
L 52.189023 46.918312 
L 52.189023 46.140684 
L 52.497286 46.140684 
L 52.497286 45.363055 
L 52.651417 45.363055 
L 52.651417 45.103845 
L 52.805549 45.103845 
L 52.805549 44.97424 
L 52.95968 44.97424 
L 52.95968 44.715031 
L 53.113812 44.715031 
L 53.113812 44.455821 
L 53.422075 44.455821 
L 53.422075 44.326216 
L 53.730337 44.326216 
L 53.730337 44.067007 
L 54.192732 44.067007 
L 54.192732 43.937402 
L 54.346863 43.937402 
L 54.346863 43.030168 
L 54.809258 43.030168 
L 54.809258 42.641354 
L 55.11752 42.641354 
L 55.11752 42.511749 
L 55.425783 42.511749 
L 55.425783 42.122935 
L 55.579915 42.122935 
L 55.579915 41.73412 
L 55.734046 41.73412 
L 55.734046 41.086096 
L 55.888178 41.086096 
L 55.888178 40.956491 
L 56.042309 40.956491 
L 56.042309 40.826887 
L 56.19644 40.826887 
L 56.19644 40.308467 
L 57.27536 40.308467 
L 57.27536 40.049258 
L 57.737755 40.049258 
L 57.737755 39.790048 
L 57.891886 39.790048 
L 57.891886 39.660443 
L 58.046018 39.660443 
L 58.046018 39.530839 
L 58.200149 39.530839 
L 58.200149 39.401234 
L 58.970806 39.401234 
L 58.970806 39.271629 
L 59.124938 39.271629 
L 59.124938 39.142024 
L 59.279069 39.142024 
L 59.279069 38.882815 
L 59.587332 38.882815 
L 59.587332 38.494 
L 59.895595 38.494 
L 59.895595 38.364395 
L 60.049726 38.364395 
L 60.049726 37.975581 
L 60.203858 37.975581 
L 60.203858 37.845976 
L 60.51212 37.845976 
L 60.51212 37.457162 
L 60.666252 37.457162 
L 60.666252 37.327557 
L 61.282778 37.327557 
L 61.282778 36.938742 
L 61.745172 36.938742 
L 61.745172 36.809138 
L 61.899303 36.809138 
L 61.899303 36.679533 
L 62.053435 36.679533 
L 62.053435 36.549928 
L 62.669961 36.549928 
L 62.669961 36.420323 
L 62.824092 36.420323 
L 62.824092 36.290718 
L 62.978223 36.290718 
L 62.978223 36.161114 
L 63.132355 36.161114 
L 63.132355 36.031509 
L 63.903012 36.031509 
L 63.903012 35.901904 
L 64.057143 35.901904 
L 64.057143 35.51309 
L 64.211275 35.51309 
L 64.211275 35.383485 
L 64.673669 35.383485 
L 64.673669 35.25388 
L 65.290195 35.25388 
L 65.290195 34.735461 
L 65.444326 34.735461 
L 65.444326 34.476251 
L 65.598458 34.476251 
L 65.598458 34.217042 
L 66.369115 34.217042 
L 66.369115 33.957832 
L 66.677378 33.957832 
L 66.677378 33.828227 
L 67.139772 33.828227 
L 67.139772 33.698622 
L 68.064561 33.698622 
L 68.064561 33.569018 
L 68.681086 33.569018 
L 68.681086 33.439413 
L 70.068269 33.439413 
L 70.068269 33.309808 
L 71.455452 33.309808 
L 71.455452 33.180203 
L 71.763715 33.180203 
L 71.763715 32.920994 
L 71.917846 32.920994 
L 71.917846 32.791389 
L 72.226109 32.791389 
L 72.226109 32.661784 
L 73.921555 32.661784 
L 73.921555 32.532179 
L 76.695921 32.532179 
L 76.695921 32.402574 
L 79.162024 32.402574 
L 79.162024 32.143365 
L 79.778549 32.143365 
L 79.778549 32.01376 
L 79.932681 32.01376 
L 79.932681 31.884155 
L 80.703338 31.884155 
L 80.703338 31.75455 
L 81.782258 31.75455 
L 81.782258 31.624945 
L 82.552915 31.624945 
L 82.552915 31.495341 
L 88.564041 31.495341 
L 88.564041 31.365736 
L 90.56775 31.365736 
L 90.56775 31.236131 
L 94.421035 31.236131 
L 94.421035 31.106526 
L 98.736715 31.106526 
L 98.736715 30.847317 
L 99.044978 30.847317 
L 99.044978 30.717712 
L 107.059813 30.717712 
L 107.059813 30.588107 
L 115.691173 30.588107 
L 115.691173 30.328897 
L 118.773801 30.328897 
L 118.773801 30.199293 
L 118.927933 30.199293 
L 118.927933 30.069688 
L 121.085773 30.069688 
L 121.085773 29.940083 
L 124.784927 29.940083 
L 124.784927 29.810478 
L 126.326242 29.810478 
L 126.326242 29.680873 
L 127.867556 29.680873 
L 127.867556 29.551269 
L 128.946476 29.551269 
L 128.946476 29.421664 
L 131.412579 29.421664 
L 131.412579 29.292059 
L 153.145111 29.292059 
L 153.145111 29.162454 
L 162.084734 29.162454 
L 162.084734 29.032849 
L 166.246282 29.032849 
L 166.246282 28.903245 
L 169.945437 28.903245 
L 169.945437 28.77364 
L 179.655717 28.77364 
L 179.655717 28.644035 
L 241.154158 28.644035 
L 241.154158 28.51443 
L 314.520719 28.51443 
L 314.520719 28.384825 
L 552.807911 28.384825 
L 552.807911 28.384825 
" clip-path="url(#p2974f1f3a4)" style="fill: none; stroke: #ff5722; stroke-width: 2.5; stroke-linecap: round"/>
   </g>
   <g id="line2d_27">
    <path d="M 45.561372 454.914237 
L 45.561372 230.957135 
L 45.715503 230.957135 
L 45.715503 142.566658 
L 45.869635 142.566658 
L 45.869635 125.07001 
L 46.023766 125.07001 
L 46.023766 123.773962 
L 46.177897 123.773962 
L 46.177897 115.09044 
L 46.332029 115.09044 
L 46.332029 107.962175 
L 46.48616 107.962175 
L 46.48616 93.187228 
L 46.640292 93.187228 
L 46.640292 91.502365 
L 46.794423 91.502365 
L 46.794423 82.300424 
L 46.948555 82.300424 
L 46.948555 77.764256 
L 47.102686 77.764256 
L 47.102686 76.857022 
L 47.256817 76.857022 
L 47.256817 75.17216 
L 47.410949 75.17216 
L 47.410949 74.264926 
L 47.56508 74.264926 
L 47.56508 72.968878 
L 47.719212 72.968878 
L 47.719212 70.506387 
L 47.873343 70.506387 
L 47.873343 67.136662 
L 48.027475 67.136662 
L 48.027475 66.099823 
L 48.335737 66.099823 
L 48.335737 65.840614 
L 48.489869 65.840614 
L 48.489869 62.341284 
L 48.644 62.341284 
L 48.644 61.563655 
L 48.798132 61.563655 
L 48.798132 61.304446 
L 49.106395 61.304446 
L 49.106395 60.526817 
L 49.260526 60.526817 
L 49.260526 60.397212 
L 49.414657 60.397212 
L 49.414657 60.138002 
L 49.568789 60.138002 
L 49.568789 58.45314 
L 49.877052 58.45314 
L 49.877052 58.323535 
L 50.031183 58.323535 
L 50.031183 57.934721 
L 50.185315 57.934721 
L 50.185315 57.416302 
L 50.493577 57.416302 
L 50.493577 56.768278 
L 50.955972 56.768278 
L 50.955972 56.120254 
L 51.264235 56.120254 
L 51.264235 55.990649 
L 51.418366 55.990649 
L 51.418366 55.731439 
L 51.572497 55.731439 
L 51.572497 55.47223 
L 51.726629 55.47223 
L 51.726629 54.564996 
L 52.189023 54.564996 
L 52.189023 54.305786 
L 52.343155 54.305786 
L 52.343155 54.046577 
L 52.497286 54.046577 
L 52.497286 53.916972 
L 52.95968 53.916972 
L 52.95968 53.268948 
L 53.113812 53.268948 
L 53.113812 52.880133 
L 53.267943 52.880133 
L 53.267943 52.750529 
L 53.422075 52.750529 
L 53.422075 52.491319 
L 53.730337 52.491319 
L 53.730337 51.843295 
L 54.0386 51.843295 
L 54.0386 51.454481 
L 54.192732 51.454481 
L 54.192732 50.936061 
L 54.346863 50.936061 
L 54.346863 50.676852 
L 54.500995 50.676852 
L 54.500995 50.028828 
L 54.655126 50.028828 
L 54.655126 49.769618 
L 54.963389 49.769618 
L 54.963389 49.510409 
L 55.11752 49.510409 
L 55.11752 49.251199 
L 55.425783 49.251199 
L 55.425783 49.121594 
L 55.579915 49.121594 
L 55.579915 48.862384 
L 55.888178 48.862384 
L 55.888178 48.603175 
L 56.042309 48.603175 
L 56.042309 48.084756 
L 56.350572 48.084756 
L 56.350572 47.825546 
L 56.504703 47.825546 
L 56.504703 47.307127 
L 56.658835 47.307127 
L 56.658835 47.047917 
L 56.812966 47.047917 
L 56.812966 46.918312 
L 57.121229 46.918312 
L 57.121229 46.788708 
L 57.429492 46.788708 
L 57.429492 46.529498 
L 58.046018 46.529498 
L 58.046018 46.399893 
L 58.508412 46.399893 
L 58.508412 46.140684 
L 58.970806 46.140684 
L 58.970806 45.881474 
L 59.279069 45.881474 
L 59.279069 45.751869 
L 59.587332 45.751869 
L 59.587332 45.622264 
L 60.049726 45.622264 
L 60.049726 45.49266 
L 60.357989 45.49266 
L 60.357989 45.103845 
L 60.51212 45.103845 
L 60.51212 44.585426 
L 60.666252 44.585426 
L 60.666252 44.455821 
L 60.820383 44.455821 
L 60.820383 44.326216 
L 60.974515 44.326216 
L 60.974515 44.067007 
L 61.282778 44.067007 
L 61.282778 43.937402 
L 61.436909 43.937402 
L 61.436909 42.770959 
L 61.59104 42.770959 
L 61.59104 42.641354 
L 61.745172 42.641354 
L 61.745172 42.511749 
L 61.899303 42.511749 
L 61.899303 41.73412 
L 62.053435 41.73412 
L 62.053435 41.604515 
L 62.207566 41.604515 
L 62.207566 41.345306 
L 62.361698 41.345306 
L 62.361698 40.826887 
L 62.515829 40.826887 
L 62.515829 40.567677 
L 62.978223 40.567677 
L 62.978223 40.438072 
L 63.132355 40.438072 
L 63.132355 40.049258 
L 63.440618 40.049258 
L 63.440618 39.919653 
L 64.673669 39.919653 
L 64.673669 39.660443 
L 65.906721 39.660443 
L 65.906721 39.530839 
L 66.060852 39.530839 
L 66.060852 39.401234 
L 66.214983 39.401234 
L 66.214983 39.142024 
L 66.369115 39.142024 
L 66.369115 39.012419 
L 66.831509 39.012419 
L 66.831509 38.882815 
L 67.448035 38.882815 
L 67.448035 38.623605 
L 67.602166 38.623605 
L 67.602166 38.494 
L 67.910429 38.494 
L 67.910429 38.105186 
L 68.218692 38.105186 
L 68.218692 37.975581 
L 68.372823 37.975581 
L 68.372823 37.845976 
L 68.526955 37.845976 
L 68.526955 37.716371 
L 69.297612 37.716371 
L 69.297612 37.586766 
L 70.068269 37.586766 
L 70.068269 37.457162 
L 70.684795 37.457162 
L 70.684795 37.327557 
L 71.609584 37.327557 
L 71.609584 37.068347 
L 71.917846 37.068347 
L 71.917846 36.809138 
L 72.226109 36.809138 
L 72.226109 36.679533 
L 73.150898 36.679533 
L 73.150898 36.420323 
L 73.767424 36.420323 
L 73.767424 36.290718 
L 74.229818 36.290718 
L 74.229818 36.161114 
L 74.846344 36.161114 
L 74.846344 36.031509 
L 75.617001 36.031509 
L 75.617001 35.772299 
L 76.079395 35.772299 
L 76.079395 35.642694 
L 77.466578 35.642694 
L 77.466578 35.51309 
L 78.237235 35.51309 
L 78.237235 35.383485 
L 79.007892 35.383485 
L 79.007892 35.25388 
L 79.624418 35.25388 
L 79.624418 35.124275 
L 79.778549 35.124275 
L 79.778549 34.865066 
L 81.319864 34.865066 
L 81.319864 34.735461 
L 81.628127 34.735461 
L 81.628127 34.605856 
L 82.398784 34.605856 
L 82.398784 34.476251 
L 82.552915 34.476251 
L 82.552915 34.346646 
L 84.094229 34.346646 
L 84.094229 34.217042 
L 84.402492 34.217042 
L 84.402492 34.087437 
L 84.864887 34.087437 
L 84.864887 33.957832 
L 85.173149 33.957832 
L 85.173149 33.828227 
L 85.327281 33.828227 
L 85.327281 33.698622 
L 86.252069 33.698622 
L 86.252069 33.569018 
L 87.639252 33.569018 
L 87.639252 33.439413 
L 89.642961 33.439413 
L 89.642961 33.180203 
L 93.187984 33.180203 
L 93.187984 33.050598 
L 97.811927 33.050598 
L 97.811927 32.920994 
L 99.19911 32.920994 
L 99.19911 32.791389 
L 99.661504 32.791389 
L 99.661504 32.661784 
L 101.511081 32.661784 
L 101.511081 32.532179 
L 103.823053 32.532179 
L 103.823053 32.402574 
L 104.285447 32.402574 
L 104.285447 32.27297 
L 105.518498 32.27297 
L 105.518498 32.143365 
L 106.75155 32.143365 
L 106.75155 32.01376 
L 112.300281 32.01376 
L 112.300281 31.884155 
L 112.762676 31.884155 
L 112.762676 31.75455 
L 112.916807 31.75455 
L 112.916807 31.624945 
L 113.379201 31.624945 
L 113.379201 31.495341 
L 114.149858 31.495341 
L 114.149858 31.365736 
L 116.615961 31.365736 
L 116.615961 31.236131 
L 117.54075 31.236131 
L 117.54075 31.106526 
L 121.85643 31.106526 
L 121.85643 30.847317 
L 130.48779 30.847317 
L 130.48779 30.717712 
L 135.728259 30.717712 
L 135.728259 30.588107 
L 138.04023 30.588107 
L 138.04023 30.458502 
L 147.288116 30.458502 
L 147.288116 30.328897 
L 156.073608 30.328897 
L 156.073608 30.199293 
L 167.325202 30.199293 
L 167.325202 30.069688 
L 168.249991 30.069688 
L 168.249991 29.940083 
L 171.024357 29.940083 
L 171.024357 29.810478 
L 173.490459 29.810478 
L 173.490459 29.680873 
L 199.38454 29.680873 
L 199.38454 29.551269 
L 209.865477 29.551269 
L 209.865477 29.421664 
L 214.643552 29.421664 
L 214.643552 29.292059 
L 214.951814 29.292059 
L 214.951814 29.162454 
L 257.492089 29.162454 
L 257.492089 29.032849 
L 272.442838 29.032849 
L 272.442838 28.903245 
L 291.092741 28.903245 
L 291.092741 28.77364 
L 293.867107 28.77364 
L 293.867107 28.644035 
L 306.197622 28.644035 
L 306.197622 28.51443 
L 420.100749 28.51443 
L 420.100749 28.384825 
L 552.807911 28.384825 
L 552.807911 28.384825 
" clip-path="url(#p2974f1f3a4)" style="fill: none; stroke: #4caf50; stroke-width: 2.5; stroke-linecap: round"/>
   </g>
   <g id="line2d_28">
    <path d="M 45.561372 454.914237 
L 552.807911 28.384825 
" clip-path="url(#p2974f1f3a4)" style="fill: none; stroke-dasharray: 3.7,1.6; stroke-dashoffset: 0; stroke: #000000; stroke-opacity: 0.5"/>
   </g>
   <g id="patch_3">
    <path d="M 40.488906 459.179531 
L 40.488906 24.119531 
" style="fill: none; stroke: #cccccc; stroke-linejoin: miter; stroke-linecap: square"/>
   </g>
   <g id="patch_4">
    <path d="M 557.880377 459.179531 
L 557.880377 24.119531 
" style="fill: none; stroke: #cccccc; stroke-linejoin: miter; stroke-linecap: square"/>
   </g>
   <g id="patch_5">
    <path d="M 40.488906 459.179531 
L 557.880377 459.179531 
" style="fill: none; stroke: #cccccc; stroke-linejoin: miter; stroke-linecap: square"/>
   </g>
   <g id="patch_6">
    <path d="M 40.488906 24.119531 
L 557.880377 24.119531 
" style="fill: none; stroke: #cccccc; stroke-linejoin: miter; stroke-linecap: square"/>
   </g>
   <g id="text_15">
    <!-- ROC Curves — Model Comparison -->
    <g style="fill: #262626" transform="translate(175.838938 18.119531) scale(0.15 -0.15)">
     <defs>
      <path id="Arial-BoldMT-52" d="M 469 0 
L 469 4581 
L 2416 4581 
Q 3150 4581 3483 4457 
Q 3816 4334 4016 4018 
Q 4216 3703 4216 3297 
Q 4216 2781 3912 2445 
Q 3609 2109 3006 2022 
Q 3306 1847 3501 1637 
Q 3697 1428 4028 894 
L 4588 0 
L 3481 0 
L 2813 997 
Q 2456 1531 2325 1670 
Q 2194 1809 2047 1861 
Q 1900 1913 1581 1913 
L 1394 1913 
L 1394 0 
L 469 0 
z
M 1394 2644 
L 2078 2644 
Q 2744 2644 2909 2700 
Q 3075 2756 3169 2893 
Q 3263 3031 3263 3238 
Q 3263 3469 3139 3611 
Q 3016 3753 2791 3791 
Q 2678 3806 2116 3806 
L 1394 3806 
L 1394 2644 
z
" transform="scale(0.015625)"/>
      <path id="Arial-BoldMT-4f" d="M 278 2263 
Q 278 2963 488 3438 
Q 644 3788 914 4066 
Q 1184 4344 1506 4478 
Q 1934 4659 2494 4659 
Q 3506 4659 4114 4031 
Q 4722 3403 4722 2284 
Q 4722 1175 4119 548 
Q 3516 -78 2506 -78 
Q 1484 -78 881 545 
Q 278 1169 278 2263 
z
M 1231 2294 
Q 1231 1516 1590 1114 
Q 1950 713 2503 713 
Q 3056 713 3411 1111 
Q 3766 1509 3766 2306 
Q 3766 3094 3420 3481 
Q 3075 3869 2503 3869 
Q 1931 3869 1581 3476 
Q 1231 3084 1231 2294 
z
" transform="scale(0.015625)"/>
      <path id="Arial-BoldMT-43" d="M 3397 1684 
L 4294 1400 
Q 4088 650 3608 286 
Q 3128 -78 2391 -78 
Q 1478 -78 890 545 
Q 303 1169 303 2250 
Q 303 3394 893 4026 
Q 1484 4659 2447 4659 
Q 3288 4659 3813 4163 
Q 4125 3869 4281 3319 
L 3366 3100 
Q 3284 3456 3026 3662 
Q 2769 3869 2400 3869 
Q 1891 3869 1573 3503 
Q 1256 3138 1256 2319 
Q 1256 1450 1568 1081 
Q 1881 713 2381 713 
Q 2750 713 3015 947 
Q 3281 1181 3397 1684 
z
" transform="scale(0.015625)"/>
      <path id="Arial-BoldMT-20" transform="scale(0.015625)"/>
      <path id="Arial-BoldMT-75" d="M 2644 0 
L 2644 497 
Q 2463 231 2167 78 
Q 1872 -75 1544 -75 
Q 1209 -75 943 72 
Q 678 219 559 484 
Q 441 750 441 1219 
L 441 3319 
L 1319 3319 
L 1319 1794 
Q 1319 1094 1367 936 
Q 1416 778 1544 686 
Q 1672 594 1869 594 
Q 2094 594 2272 717 
Q 2450 841 2515 1023 
Q 2581 1206 2581 1919 
L 2581 3319 
L 3459 3319 
L 3459 0 
L 2644 0 
z
" transform="scale(0.015625)"/>
      <path id="Arial-BoldMT-72" d="M 1300 0 
L 422 0 
L 422 3319 
L 1238 3319 
L 1238 2847 
Q 1447 3181 1614 3287 
Q 1781 3394 1994 3394 
Q 2294 3394 2572 3228 
L 2300 2463 
Q 2078 2606 1888 2606 
Q 1703 2606 1575 2504 
Q 1447 2403 1373 2137 
Q 1300 1872 1300 1025 
L 1300 0 
z
" transform="scale(0.015625)"/>
      <path id="Arial-BoldMT-76" d="M 1372 0 
L 34 3319 
L 956 3319 
L 1581 1625 
L 1763 1059 
Q 1834 1275 1853 1344 
Q 1897 1484 1947 1625 
L 2578 3319 
L 3481 3319 
L 2163 0 
L 1372 0 
z
" transform="scale(0.015625)"/>
      <path id="Arial-BoldMT-65" d="M 2381 1056 
L 3256 909 
Q 3088 428 2723 176 
Q 2359 -75 1813 -75 
Q 947 -75 531 491 
Q 203 944 203 1634 
Q 203 2459 634 2926 
Q 1066 3394 1725 3394 
Q 2466 3394 2894 2905 
Q 3322 2416 3303 1406 
L 1103 1406 
Q 1113 1016 1316 798 
Q 1519 581 1822 581 
Q 2028 581 2168 693 
Q 2309 806 2381 1056 
z
M 2431 1944 
Q 2422 2325 2234 2523 
Q 2047 2722 1778 2722 
Q 1491 2722 1303 2513 
Q 1116 2303 1119 1944 
L 2431 1944 
z
" transform="scale(0.015625)"/>
      <path id="Arial-BoldMT-73" d="M 150 947 
L 1031 1081 
Q 1088 825 1259 692 
Q 1431 559 1741 559 
Q 2081 559 2253 684 
Q 2369 772 2369 919 
Q 2369 1019 2306 1084 
Q 2241 1147 2013 1200 
Q 950 1434 666 1628 
Q 272 1897 272 2375 
Q 272 2806 612 3100 
Q 953 3394 1669 3394 
Q 2350 3394 2681 3172 
Q 3013 2950 3138 2516 
L 2309 2363 
Q 2256 2556 2107 2659 
Q 1959 2763 1684 2763 
Q 1338 2763 1188 2666 
Q 1088 2597 1088 2488 
Q 1088 2394 1175 2328 
Q 1294 2241 1995 2081 
Q 2697 1922 2975 1691 
Q 3250 1456 3250 1038 
Q 3250 581 2869 253 
Q 2488 -75 1741 -75 
Q 1063 -75 667 200 
Q 272 475 150 947 
z
" transform="scale(0.015625)"/>
      <path id="Arial-BoldMT-2014" d="M 0 1331 
L 0 1988 
L 6400 1988 
L 6400 1331 
L 0 1331 
z
" transform="scale(0.015625)"/>
      <path id="Arial-BoldMT-4d" d="M 453 0 
L 453 4581 
L 1838 4581 
L 2669 1456 
L 3491 4581 
L 4878 4581 
L 4878 0 
L 4019 0 
L 4019 3606 
L 3109 0 
L 2219 0 
L 1313 3606 
L 1313 0 
L 453 0 
z
" transform="scale(0.015625)"/>
      <path id="Arial-BoldMT-6f" d="M 256 1706 
Q 256 2144 472 2553 
Q 688 2963 1083 3178 
Q 1478 3394 1966 3394 
Q 2719 3394 3200 2905 
Q 3681 2416 3681 1669 
Q 3681 916 3195 420 
Q 2709 -75 1972 -75 
Q 1516 -75 1102 131 
Q 688 338 472 736 
Q 256 1134 256 1706 
z
M 1156 1659 
Q 1156 1166 1390 903 
Q 1625 641 1969 641 
Q 2313 641 2545 903 
Q 2778 1166 2778 1666 
Q 2778 2153 2545 2415 
Q 2313 2678 1969 2678 
Q 1625 2678 1390 2415 
Q 1156 2153 1156 1659 
z
" transform="scale(0.015625)"/>
      <path id="Arial-BoldMT-64" d="M 3503 0 
L 2688 0 
L 2688 488 
Q 2484 203 2207 64 
Q 1931 -75 1650 -75 
Q 1078 -75 670 386 
Q 263 847 263 1672 
Q 263 2516 659 2955 
Q 1056 3394 1663 3394 
Q 2219 3394 2625 2931 
L 2625 4581 
L 3503 4581 
L 3503 0 
z
M 1159 1731 
Q 1159 1200 1306 963 
Q 1519 619 1900 619 
Q 2203 619 2415 876 
Q 2628 1134 2628 1647 
Q 2628 2219 2422 2470 
Q 2216 2722 1894 2722 
Q 1581 2722 1370 2473 
Q 1159 2225 1159 1731 
z
" transform="scale(0.015625)"/>
      <path id="Arial-BoldMT-6c" d="M 459 0 
L 459 4581 
L 1338 4581 
L 1338 0 
L 459 0 
z
" transform="scale(0.015625)"/>
      <path id="Arial-BoldMT-6d" d="M 394 3319 
L 1203 3319 
L 1203 2866 
Q 1638 3394 2238 3394 
Q 2556 3394 2790 3262 
Q 3025 3131 3175 2866 
Q 3394 3131 3647 3262 
Q 3900 3394 4188 3394 
Q 4553 3394 4806 3245 
Q 5059 3097 5184 2809 
Q 5275 2597 5275 2122 
L 5275 0 
L 4397 0 
L 4397 1897 
Q 4397 2391 4306 2534 
Q 4184 2722 3931 2722 
Q 3747 2722 3584 2609 
Q 3422 2497 3350 2280 
Q 3278 2063 3278 1594 
L 3278 0 
L 2400 0 
L 2400 1819 
Q 2400 2303 2353 2443 
Q 2306 2584 2207 2653 
Q 2109 2722 1941 2722 
Q 1738 2722 1575 2612 
Q 1413 2503 1342 2297 
Q 1272 2091 1272 1613 
L 1272 0 
L 394 0 
L 394 3319 
z
" transform="scale(0.015625)"/>
      <path id="Arial-BoldMT-70" d="M 434 3319 
L 1253 3319 
L 1253 2831 
Q 1413 3081 1684 3237 
Q 1956 3394 2288 3394 
Q 2866 3394 3269 2941 
Q 3672 2488 3672 1678 
Q 3672 847 3265 386 
Q 2859 -75 2281 -75 
Q 2006 -75 1782 34 
Q 1559 144 1313 409 
L 1313 -1263 
L 434 -1263 
L 434 3319 
z
M 1303 1716 
Q 1303 1156 1525 889 
Q 1747 622 2066 622 
Q 2372 622 2575 867 
Q 2778 1113 2778 1672 
Q 2778 2194 2568 2447 
Q 2359 2700 2050 2700 
Q 1728 2700 1515 2451 
Q 1303 2203 1303 1716 
z
" transform="scale(0.015625)"/>
      <path id="Arial-BoldMT-61" d="M 1116 2306 
L 319 2450 
Q 453 2931 781 3162 
Q 1109 3394 1756 3394 
Q 2344 3394 2631 3255 
Q 2919 3116 3036 2902 
Q 3153 2688 3153 2116 
L 3144 1091 
Q 3144 653 3186 445 
Q 3228 238 3344 0 
L 2475 0 
Q 2441 88 2391 259 
Q 2369 338 2359 363 
Q 2134 144 1878 34 
Q 1622 -75 1331 -75 
Q 819 -75 523 203 
Q 228 481 228 906 
Q 228 1188 362 1408 
Q 497 1628 739 1745 
Q 981 1863 1438 1950 
Q 2053 2066 2291 2166 
L 2291 2253 
Q 2291 2506 2166 2614 
Q 2041 2722 1694 2722 
Q 1459 2722 1328 2630 
Q 1197 2538 1116 2306 
z
M 2291 1594 
Q 2122 1538 1756 1459 
Q 1391 1381 1278 1306 
Q 1106 1184 1106 997 
Q 1106 813 1243 678 
Q 1381 544 1594 544 
Q 1831 544 2047 700 
Q 2206 819 2256 991 
Q 2291 1103 2291 1419 
L 2291 1594 
z
" transform="scale(0.015625)"/>
      <path id="Arial-BoldMT-69" d="M 459 3769 
L 459 4581 
L 1338 4581 
L 1338 3769 
L 459 3769 
z
M 459 0 
L 459 3319 
L 1338 3319 
L 1338 0 
L 459 0 
z
" transform="scale(0.015625)"/>
      <path id="Arial-BoldMT-6e" d="M 3478 0 
L 2600 0 
L 2600 1694 
Q 2600 2231 2544 2389 
Q 2488 2547 2361 2634 
Q 2234 2722 2056 2722 
Q 1828 2722 1647 2597 
Q 1466 2472 1398 2265 
Q 1331 2059 1331 1503 
L 1331 0 
L 453 0 
L 453 3319 
L 1269 3319 
L 1269 2831 
Q 1703 3394 2363 3394 
Q 2653 3394 2893 3289 
Q 3134 3184 3257 3021 
Q 3381 2859 3429 2653 
Q 3478 2447 3478 2063 
L 3478 0 
z
" transform="scale(0.015625)"/>
     </defs>
     <use xlink:href="#Arial-BoldMT-52"/>
     <use xlink:href="#Arial-BoldMT-4f" transform="translate(72.216797 0)"/>
     <use xlink:href="#Arial-BoldMT-43" transform="translate(150 0)"/>
     <use xlink:href="#Arial-BoldMT-20" transform="translate(222.216797 0)"/>
     <use xlink:href="#Arial-BoldMT-43" transform="translate(250 0)"/>
     <use xlink:href="#Arial-BoldMT-75" transform="translate(322.216797 0)"/>
     <use xlink:href="#Arial-BoldMT-72" transform="translate(383.300781 0)"/>
     <use xlink:href="#Arial-BoldMT-76" transform="translate(422.216797 0)"/>
     <use xlink:href="#Arial-BoldMT-65" transform="translate(477.832031 0)"/>
     <use xlink:href="#Arial-BoldMT-73" transform="translate(533.447266 0)"/>
     <use xlink:href="#Arial-BoldMT-20" transform="translate(589.0625 0)"/>
     <use xlink:href="#Arial-BoldMT-2014" transform="translate(616.845703 0)"/>
     <use xlink:href="#Arial-BoldMT-20" transform="translate(716.845703 0)"/>
     <use xlink:href="#Arial-BoldMT-4d" transform="translate(744.628906 0)"/>
     <use xlink:href="#Arial-BoldMT-6f" transform="translate(827.929688 0)"/>
     <use xlink:href="#Arial-BoldMT-64" transform="translate(889.013672 0)"/>
     <use xlink:href="#Arial-BoldMT-65" transform="translate(950.097656 0)"/>
     <use xlink:href="#Arial-BoldMT-6c" transform="translate(1005.712891 0)"/>
     <use xlink:href="#Arial-BoldMT-20" transform="translate(1033.496094 0)"/>
     <use xlink:href="#Arial-BoldMT-43" transform="translate(1061.279297 0)"/>
     <use xlink:href="#Arial-BoldMT-6f" transform="translate(1133.496094 0)"/>
     <use xlink:href="#Arial-BoldMT-6d" transform="translate(1194.580078 0)"/>
     <use xlink:href="#Arial-BoldMT-70" transform="translate(1283.496094 0)"/>
     <use xlink:href="#Arial-BoldMT-61" transform="translate(1344.580078 0)"/>
     <use xlink:href="#Arial-BoldMT-72" transform="translate(1400.195312 0)"/>
     <use xlink:href="#Arial-BoldMT-69" transform="translate(1439.111328 0)"/>
     <use xlink:href="#Arial-BoldMT-73" transform="translate(1466.894531 0)"/>
     <use xlink:href="#Arial-BoldMT-6f" transform="translate(1522.509766 0)"/>
     <use xlink:href="#Arial-BoldMT-6e" transform="translate(1583.59375 0)"/>
    </g>
   </g>
   <g id="legend_1">
    <g id="line2d_29">
     <path d="M 341.408971 395.645937 
L 352.408971 395.645937 
L 363.408971 395.645937 
" style="fill: none; stroke: #2196f3; stroke-width: 2.5; stroke-linecap: round"/>
    </g>
    <g id="text_16">
     <!-- Logistic Regression (AUC = 0.9926) -->
     <g style="fill: #262626" transform="translate(372.208971 399.495937) scale(0.11 -0.11)">
      <defs>
       <path id="ArialMT-4c" d="M 469 0 
L 469 4581 
L 1075 4581 
L 1075 541 
L 3331 541 
L 3331 0 
L 469 0 
z
" transform="scale(0.015625)"/>
       <path id="ArialMT-67" d="M 319 -275 
L 866 -356 
Q 900 -609 1056 -725 
Q 1266 -881 1628 -881 
Q 2019 -881 2231 -725 
Q 2444 -569 2519 -288 
Q 2563 -116 2559 434 
Q 2191 0 1641 0 
Q 956 0 581 494 
Q 206 988 206 1678 
Q 206 2153 378 2554 
Q 550 2956 876 3175 
Q 1203 3394 1644 3394 
Q 2231 3394 2613 2919 
L 2613 3319 
L 3131 3319 
L 3131 450 
Q 3131 -325 2973 -648 
Q 2816 -972 2473 -1159 
Q 2131 -1347 1631 -1347 
Q 1038 -1347 672 -1080 
Q 306 -813 319 -275 
z
M 784 1719 
Q 784 1066 1043 766 
Q 1303 466 1694 466 
Q 2081 466 2343 764 
Q 2606 1063 2606 1700 
Q 2606 2309 2336 2618 
Q 2066 2928 1684 2928 
Q 1309 2928 1046 2623 
Q 784 2319 784 1719 
z
" transform="scale(0.015625)"/>
       <path id="ArialMT-63" d="M 2588 1216 
L 3141 1144 
Q 3050 572 2676 248 
Q 2303 -75 1759 -75 
Q 1078 -75 664 370 
Q 250 816 250 1647 
Q 250 2184 428 2587 
Q 606 2991 970 3192 
Q 1334 3394 1763 3394 
Q 2303 3394 2647 3120 
Q 2991 2847 3088 2344 
L 2541 2259 
Q 2463 2594 2264 2762 
Q 2066 2931 1784 2931 
Q 1359 2931 1093 2626 
Q 828 2322 828 1663 
Q 828 994 1084 691 
Q 1341 388 1753 388 
Q 2084 388 2306 591 
Q 2528 794 2588 1216 
z
" transform="scale(0.015625)"/>
       <path id="ArialMT-6e" d="M 422 0 
L 422 3319 
L 928 3319 
L 928 2847 
Q 1294 3394 1984 3394 
Q 2284 3394 2536 3286 
Q 2788 3178 2913 3003 
Q 3038 2828 3088 2588 
Q 3119 2431 3119 2041 
L 3119 0 
L 2556 0 
L 2556 2019 
Q 2556 2363 2490 2533 
Q 2425 2703 2258 2804 
Q 2091 2906 1866 2906 
Q 1506 2906 1245 2678 
Q 984 2450 984 1813 
L 984 0 
L 422 0 
z
" transform="scale(0.015625)"/>
       <path id="ArialMT-28" d="M 1497 -1347 
Q 1031 -759 709 28 
Q 388 816 388 1659 
Q 388 2403 628 3084 
Q 909 3875 1497 4659 
L 1900 4659 
Q 1522 4009 1400 3731 
Q 1209 3300 1100 2831 
Q 966 2247 966 1656 
Q 966 153 1900 -1347 
L 1497 -1347 
z
" transform="scale(0.015625)"/>
       <path id="ArialMT-41" d="M -9 0 
L 1750 4581 
L 2403 4581 
L 4278 0 
L 3588 0 
L 3053 1388 
L 1138 1388 
L 634 0 
L -9 0 
z
M 1313 1881 
L 2866 1881 
L 2388 3150 
Q 2169 3728 2063 4100 
Q 1975 3659 1816 3225 
L 1313 1881 
z
" transform="scale(0.015625)"/>
       <path id="ArialMT-55" d="M 3500 4581 
L 4106 4581 
L 4106 1934 
Q 4106 1244 3950 837 
Q 3794 431 3386 176 
Q 2978 -78 2316 -78 
Q 1672 -78 1262 144 
Q 853 366 678 786 
Q 503 1206 503 1934 
L 503 4581 
L 1109 4581 
L 1109 1938 
Q 1109 1341 1220 1058 
Q 1331 775 1601 622 
Q 1872 469 2263 469 
Q 2931 469 3215 772 
Q 3500 1075 3500 1938 
L 3500 4581 
z
" transform="scale(0.015625)"/>
       <path id="ArialMT-43" d="M 3763 1606 
L 4369 1453 
Q 4178 706 3683 314 
Q 3188 -78 2472 -78 
Q 1731 -78 1267 223 
Q 803 525 561 1097 
Q 319 1669 319 2325 
Q 319 3041 592 3573 
Q 866 4106 1370 4382 
Q 1875 4659 2481 4659 
Q 3169 4659 3637 4309 
Q 4106 3959 4291 3325 
L 3694 3184 
Q 3534 3684 3231 3912 
Q 2928 4141 2469 4141 
Q 1941 4141 1586 3887 
Q 1231 3634 1087 3207 
Q 944 2781 944 2328 
Q 944 1744 1114 1308 
Q 1284 872 1643 656 
Q 2003 441 2422 441 
Q 2931 441 3284 734 
Q 3638 1028 3763 1606 
z
" transform="scale(0.015625)"/>
       <path id="ArialMT-3d" d="M 3381 2694 
L 356 2694 
L 356 3219 
L 3381 3219 
L 3381 2694 
z
M 3381 1303 
L 356 1303 
L 356 1828 
L 3381 1828 
L 3381 1303 
z
" transform="scale(0.015625)"/>
       <path id="ArialMT-39" d="M 350 1059 
L 891 1109 
Q 959 728 1153 556 
Q 1347 384 1650 384 
Q 1909 384 2104 503 
Q 2300 622 2425 820 
Q 2550 1019 2634 1356 
Q 2719 1694 2719 2044 
Q 2719 2081 2716 2156 
Q 2547 1888 2255 1720 
Q 1963 1553 1622 1553 
Q 1053 1553 659 1965 
Q 266 2378 266 3053 
Q 266 3750 677 4175 
Q 1088 4600 1706 4600 
Q 2153 4600 2523 4359 
Q 2894 4119 3086 3673 
Q 3278 3228 3278 2384 
Q 3278 1506 3087 986 
Q 2897 466 2520 194 
Q 2144 -78 1638 -78 
Q 1100 -78 759 220 
Q 419 519 350 1059 
z
M 2653 3081 
Q 2653 3566 2395 3850 
Q 2138 4134 1775 4134 
Q 1400 4134 1122 3828 
Q 844 3522 844 3034 
Q 844 2597 1108 2323 
Q 1372 2050 1759 2050 
Q 2150 2050 2401 2323 
Q 2653 2597 2653 3081 
z
" transform="scale(0.015625)"/>
       <path id="ArialMT-29" d="M 791 -1347 
L 388 -1347 
Q 1322 153 1322 1656 
Q 1322 2244 1188 2822 
Q 1081 3291 891 3722 
Q 769 4003 388 4659 
L 791 4659 
Q 1378 3875 1659 3084 
Q 1900 2403 1900 1659 
Q 1900 816 1576 28 
Q 1253 -759 791 -1347 
z
" transform="scale(0.015625)"/>
      </defs>
      <use xlink:href="#ArialMT-4c"/>
      <use xlink:href="#ArialMT-6f" transform="translate(55.615234 0)"/>
      <use xlink:href="#ArialMT-67" transform="translate(111.230469 0)"/>
      <use xlink:href="#ArialMT-69" transform="translate(166.845703 0)"/>
      <use xlink:href="#ArialMT-73" transform="translate(189.0625 0)"/>
      <use xlink:href="#ArialMT-74" transform="translate(239.0625 0)"/>
      <use xlink:href="#ArialMT-69" transform="translate(266.845703 0)"/>
      <use xlink:href="#ArialMT-63" transform="translate(289.0625 0)"/>
      <use xlink:href="#ArialMT-20" transform="translate(339.0625 0)"/>
      <use xlink:href="#ArialMT-52" transform="translate(366.845703 0)"/>
      <use xlink:href="#ArialMT-65" transform="translate(439.0625 0)"/>
      <use xlink:href="#ArialMT-67" transform="translate(494.677734 0)"/>
      <use xlink:href="#ArialMT-72" transform="translate(550.292969 0)"/>
      <use xlink:href="#ArialMT-65" transform="translate(583.59375 0)"/>
      <use xlink:href="#ArialMT-73" transform="translate(639.208984 0)"/>
      <use xlink:href="#ArialMT-73" transform="translate(689.208984 0)"/>
      <use xlink:href="#ArialMT-69" transform="translate(739.208984 0)"/>
      <use xlink:href="#ArialMT-6f" transform="translate(761.425781 0)"/>
      <use xlink:href="#ArialMT-6e" transform="translate(817.041016 0)"/>
      <use xlink:href="#ArialMT-20" transform="translate(872.65625 0)"/>
      <use xlink:href="#ArialMT-28" transform="translate(900.439453 0)"/>
      <use xlink:href="#ArialMT-41" transform="translate(933.740234 0)"/>
      <use xlink:href="#ArialMT-55" transform="translate(1000.439453 0)"/>
      <use xlink:href="#ArialMT-43" transform="translate(1072.65625 0)"/>
      <use xlink:href="#ArialMT-20" transform="translate(1144.873047 0)"/>
      <use xlink:href="#ArialMT-3d" transform="translate(1172.65625 0)"/>
      <use xlink:href="#ArialMT-20" transform="translate(1231.054688 0)"/>
      <use xlink:href="#ArialMT-30" transform="translate(1258.837891 0)"/>
      <use xlink:href="#ArialMT-2e" transform="translate(1314.453125 0)"/>
      <use xlink:href="#ArialMT-39" transform="translate(1342.236328 0)"/>
      <use xlink:href="#ArialMT-39" transform="translate(1397.851562 0)"/>
      <use xlink:href="#ArialMT-32" transform="translate(1453.466797 0)"/>
      <use xlink:href="#ArialMT-36" transform="translate(1509.082031 0)"/>
      <use xlink:href="#ArialMT-29" transform="translate(1564.697266 0)"/>
     </g>
    </g>
    <g id="line2d_30">
     <path d="M 341.408971 411.46875 
L 352.408971 411.46875 
L 363.408971 411.46875 
" style="fill: none; stroke: #ff5722; stroke-width: 2.5; stroke-linecap: round"/>
    </g>
    <g id="text_17">
     <!-- SVM (AUC = 0.9971) -->
     <g style="fill: #262626" transform="translate(372.208971 415.31875) scale(0.11 -0.11)">
      <defs>
       <path id="ArialMT-53" d="M 288 1472 
L 859 1522 
Q 900 1178 1048 958 
Q 1197 738 1509 602 
Q 1822 466 2213 466 
Q 2559 466 2825 569 
Q 3091 672 3220 851 
Q 3350 1031 3350 1244 
Q 3350 1459 3225 1620 
Q 3100 1781 2813 1891 
Q 2628 1963 1997 2114 
Q 1366 2266 1113 2400 
Q 784 2572 623 2826 
Q 463 3081 463 3397 
Q 463 3744 659 4045 
Q 856 4347 1234 4503 
Q 1613 4659 2075 4659 
Q 2584 4659 2973 4495 
Q 3363 4331 3572 4012 
Q 3781 3694 3797 3291 
L 3216 3247 
Q 3169 3681 2898 3903 
Q 2628 4125 2100 4125 
Q 1550 4125 1298 3923 
Q 1047 3722 1047 3438 
Q 1047 3191 1225 3031 
Q 1400 2872 2139 2705 
Q 2878 2538 3153 2413 
Q 3553 2228 3743 1945 
Q 3934 1663 3934 1294 
Q 3934 928 3725 604 
Q 3516 281 3123 101 
Q 2731 -78 2241 -78 
Q 1619 -78 1198 103 
Q 778 284 539 648 
Q 300 1013 288 1472 
z
" transform="scale(0.015625)"/>
       <path id="ArialMT-56" d="M 1803 0 
L 28 4581 
L 684 4581 
L 1875 1253 
Q 2019 853 2116 503 
Q 2222 878 2363 1253 
L 3600 4581 
L 4219 4581 
L 2425 0 
L 1803 0 
z
" transform="scale(0.015625)"/>
       <path id="ArialMT-4d" d="M 475 0 
L 475 4581 
L 1388 4581 
L 2472 1338 
Q 2622 884 2691 659 
Q 2769 909 2934 1394 
L 4031 4581 
L 4847 4581 
L 4847 0 
L 4263 0 
L 4263 3834 
L 2931 0 
L 2384 0 
L 1059 3900 
L 1059 0 
L 475 0 
z
" transform="scale(0.015625)"/>
       <path id="ArialMT-37" d="M 303 3981 
L 303 4522 
L 3269 4522 
L 3269 4084 
Q 2831 3619 2401 2847 
Q 1972 2075 1738 1259 
Q 1569 684 1522 0 
L 944 0 
Q 953 541 1156 1306 
Q 1359 2072 1739 2783 
Q 2119 3494 2547 3981 
L 303 3981 
z
" transform="scale(0.015625)"/>
      </defs>
      <use xlink:href="#ArialMT-53"/>
      <use xlink:href="#ArialMT-56" transform="translate(66.699219 0)"/>
      <use xlink:href="#ArialMT-4d" transform="translate(133.398438 0)"/>
      <use xlink:href="#ArialMT-20" transform="translate(216.699219 0)"/>
      <use xlink:href="#ArialMT-28" transform="translate(244.482422 0)"/>
      <use xlink:href="#ArialMT-41" transform="translate(277.783203 0)"/>
      <use xlink:href="#ArialMT-55" transform="translate(344.482422 0)"/>
      <use xlink:href="#ArialMT-43" transform="translate(416.699219 0)"/>
      <use xlink:href="#ArialMT-20" transform="translate(488.916016 0)"/>
      <use xlink:href="#ArialMT-3d" transform="translate(516.699219 0)"/>
      <use xlink:href="#ArialMT-20" transform="translate(575.097656 0)"/>
      <use xlink:href="#ArialMT-30" transform="translate(602.880859 0)"/>
      <use xlink:href="#ArialMT-2e" transform="translate(658.496094 0)"/>
      <use xlink:href="#ArialMT-39" transform="translate(686.279297 0)"/>
      <use xlink:href="#ArialMT-39" transform="translate(741.894531 0)"/>
      <use xlink:href="#ArialMT-37" transform="translate(797.509766 0)"/>
      <use xlink:href="#ArialMT-31" transform="translate(853.125 0)"/>
      <use xlink:href="#ArialMT-29" transform="translate(908.740234 0)"/>
     </g>
    </g>
    <g id="line2d_31">
     <path d="M 341.408971 427.291562 
L 352.408971 427.291562 
L 363.408971 427.291562 
" style="fill: none; stroke: #4caf50; stroke-width: 2.5; stroke-linecap: round"/>
    </g>
    <g id="text_18">
     <!-- Random Forest (AUC = 0.9951) -->
     <g style="fill: #262626" transform="translate(372.208971 431.141562) scale(0.11 -0.11)">
      <defs>
       <path id="ArialMT-64" d="M 2575 0 
L 2575 419 
Q 2259 -75 1647 -75 
Q 1250 -75 917 144 
Q 584 363 401 755 
Q 219 1147 219 1656 
Q 219 2153 384 2558 
Q 550 2963 881 3178 
Q 1213 3394 1622 3394 
Q 1922 3394 2156 3267 
Q 2391 3141 2538 2938 
L 2538 4581 
L 3097 4581 
L 3097 0 
L 2575 0 
z
M 797 1656 
Q 797 1019 1065 703 
Q 1334 388 1700 388 
Q 2069 388 2326 689 
Q 2584 991 2584 1609 
Q 2584 2291 2321 2609 
Q 2059 2928 1675 2928 
Q 1300 2928 1048 2622 
Q 797 2316 797 1656 
z
" transform="scale(0.015625)"/>
       <path id="ArialMT-6d" d="M 422 0 
L 422 3319 
L 925 3319 
L 925 2853 
Q 1081 3097 1340 3245 
Q 1600 3394 1931 3394 
Q 2300 3394 2536 3241 
Q 2772 3088 2869 2813 
Q 3263 3394 3894 3394 
Q 4388 3394 4653 3120 
Q 4919 2847 4919 2278 
L 4919 0 
L 4359 0 
L 4359 2091 
Q 4359 2428 4304 2576 
Q 4250 2725 4106 2815 
Q 3963 2906 3769 2906 
Q 3419 2906 3187 2673 
Q 2956 2441 2956 1928 
L 2956 0 
L 2394 0 
L 2394 2156 
Q 2394 2531 2256 2718 
Q 2119 2906 1806 2906 
Q 1569 2906 1367 2781 
Q 1166 2656 1075 2415 
Q 984 2175 984 1722 
L 984 0 
L 422 0 
z
" transform="scale(0.015625)"/>
       <path id="ArialMT-35" d="M 266 1200 
L 856 1250 
Q 922 819 1161 601 
Q 1400 384 1738 384 
Q 2144 384 2425 690 
Q 2706 997 2706 1503 
Q 2706 1984 2436 2262 
Q 2166 2541 1728 2541 
Q 1456 2541 1237 2417 
Q 1019 2294 894 2097 
L 366 2166 
L 809 4519 
L 3088 4519 
L 3088 3981 
L 1259 3981 
L 1013 2750 
Q 1425 3038 1878 3038 
Q 2478 3038 2890 2622 
Q 3303 2206 3303 1553 
Q 3303 931 2941 478 
Q 2500 -78 1738 -78 
Q 1113 -78 717 272 
Q 322 622 266 1200 
z
" transform="scale(0.015625)"/>
      </defs>
      <use xlink:href="#ArialMT-52"/>
      <use xlink:href="#ArialMT-61" transform="translate(72.216797 0)"/>
      <use xlink:href="#ArialMT-6e" transform="translate(127.832031 0)"/>
      <use xlink:href="#ArialMT-64" transform="translate(183.447266 0)"/>
      <use xlink:href="#ArialMT-6f" transform="translate(239.0625 0)"/>
      <use xlink:href="#ArialMT-6d" transform="translate(294.677734 0)"/>
      <use xlink:href="#ArialMT-20" transform="translate(377.978516 0)"/>
      <use xlink:href="#ArialMT-46" transform="translate(405.761719 0)"/>
      <use xlink:href="#ArialMT-6f" transform="translate(466.845703 0)"/>
      <use xlink:href="#ArialMT-72" transform="translate(522.460938 0)"/>
      <use xlink:href="#ArialMT-65" transform="translate(555.761719 0)"/>
      <use xlink:href="#ArialMT-73" transform="translate(611.376953 0)"/>
      <use xlink:href="#ArialMT-74" transform="translate(661.376953 0)"/>
      <use xlink:href="#ArialMT-20" transform="translate(689.160156 0)"/>
      <use xlink:href="#ArialMT-28" transform="translate(716.943359 0)"/>
      <use xlink:href="#ArialMT-41" transform="translate(750.244141 0)"/>
      <use xlink:href="#ArialMT-55" transform="translate(816.943359 0)"/>
      <use xlink:href="#ArialMT-43" transform="translate(889.160156 0)"/>
      <use xlink:href="#ArialMT-20" transform="translate(961.376953 0)"/>
      <use xlink:href="#ArialMT-3d" transform="translate(989.160156 0)"/>
      <use xlink:href="#ArialMT-20" transform="translate(1047.558594 0)"/>
      <use xlink:href="#ArialMT-30" transform="translate(1075.341797 0)"/>
      <use xlink:href="#ArialMT-2e" transform="translate(1130.957031 0)"/>
      <use xlink:href="#ArialMT-39" transform="translate(1158.740234 0)"/>
      <use xlink:href="#ArialMT-39" transform="translate(1214.355469 0)"/>
      <use xlink:href="#ArialMT-35" transform="translate(1269.970703 0)"/>
      <use xlink:href="#ArialMT-31" transform="translate(1325.585938 0)"/>
      <use xlink:href="#ArialMT-29" transform="translate(1381.201172 0)"/>
     </g>
    </g>
    <g id="line2d_32">
     <path d="M 341.408971 443.114375 
L 352.408971 443.114375 
L 363.408971 443.114375 
" style="fill: none; stroke-dasharray: 3.7,1.6; stroke-dashoffset: 0; stroke: #000000; stroke-opacity: 0.5"/>
    </g>
    <g id="text_19">
     <!-- Random Guessing (AUC = 0.5) -->
     <g style="fill: #262626" transform="translate(372.208971 446.964375) scale(0.11 -0.11)">
      <defs>
       <path id="ArialMT-47" d="M 2638 1797 
L 2638 2334 
L 4578 2338 
L 4578 638 
Q 4131 281 3656 101 
Q 3181 -78 2681 -78 
Q 2006 -78 1454 211 
Q 903 500 622 1047 
Q 341 1594 341 2269 
Q 341 2938 620 3517 
Q 900 4097 1425 4378 
Q 1950 4659 2634 4659 
Q 3131 4659 3532 4498 
Q 3934 4338 4162 4050 
Q 4391 3763 4509 3300 
L 3963 3150 
Q 3859 3500 3706 3700 
Q 3553 3900 3268 4020 
Q 2984 4141 2638 4141 
Q 2222 4141 1919 4014 
Q 1616 3888 1430 3681 
Q 1244 3475 1141 3228 
Q 966 2803 966 2306 
Q 966 1694 1177 1281 
Q 1388 869 1791 669 
Q 2194 469 2647 469 
Q 3041 469 3416 620 
Q 3791 772 3984 944 
L 3984 1797 
L 2638 1797 
z
" transform="scale(0.015625)"/>
      </defs>
      <use xlink:href="#ArialMT-52"/>
      <use xlink:href="#ArialMT-61" transform="translate(72.216797 0)"/>
      <use xlink:href="#ArialMT-6e" transform="translate(127.832031 0)"/>
      <use xlink:href="#ArialMT-64" transform="translate(183.447266 0)"/>
      <use xlink:href="#ArialMT-6f" transform="translate(239.0625 0)"/>
      <use xlink:href="#ArialMT-6d" transform="translate(294.677734 0)"/>
      <use xlink:href="#ArialMT-20" transform="translate(377.978516 0)"/>
      <use xlink:href="#ArialMT-47" transform="translate(405.761719 0)"/>
      <use xlink:href="#ArialMT-75" transform="translate(483.544922 0)"/>
      <use xlink:href="#ArialMT-65" transform="translate(539.160156 0)"/>
      <use xlink:href="#ArialMT-73" transform="translate(594.775391 0)"/>
      <use xlink:href="#ArialMT-73" transform="translate(644.775391 0)"/>
      <use xlink:href="#ArialMT-69" transform="translate(694.775391 0)"/>
      <use xlink:href="#ArialMT-6e" transform="translate(716.992188 0)"/>
      <use xlink:href="#ArialMT-67" transform="translate(772.607422 0)"/>
      <use xlink:href="#ArialMT-20" transform="translate(828.222656 0)"/>
      <use xlink:href="#ArialMT-28" transform="translate(856.005859 0)"/>
      <use xlink:href="#ArialMT-41" transform="translate(889.306641 0)"/>
      <use xlink:href="#ArialMT-55" transform="translate(956.005859 0)"/>
      <use xlink:href="#ArialMT-43" transform="translate(1028.222656 0)"/>
      <use xlink:href="#ArialMT-20" transform="translate(1100.439453 0)"/>
      <use xlink:href="#ArialMT-3d" transform="translate(1128.222656 0)"/>
      <use xlink:href="#ArialMT-20" transform="translate(1186.621094 0)"/>
      <use xlink:href="#ArialMT-30" transform="translate(1214.404297 0)"/>
      <use xlink:href="#ArialMT-2e" transform="translate(1270.019531 0)"/>
      <use xlink:href="#ArialMT-35" transform="translate(1297.802734 0)"/>
      <use xlink:href="#ArialMT-29" transform="translate(1353.417969 0)"/>
     </g>
    </g>
   </g>
  </g>
 </g>
 <defs>
  <clipPath id="p2974f1f3a4">
   <rect x="40.488906" y="24.119531" width="517.391471" height="435.06"/>
  </clipPath>
 </defs>
</svg>
